<svg width="57" height="55" viewBox="0 0 57 55" fill="none" xmlns="http://www.w3.org/2000/svg">
<g clip-path="url(#clip0_429_3668)">
<path d="M38.7502 22.655C37.9867 22.9926 37.1771 23.2144 36.3482 23.313C37.2219 22.7904 37.8759 21.968 38.1882 20.9989C37.3682 21.4869 36.4692 21.8289 35.5322 22.0139C34.9028 21.3405 34.0685 20.8939 33.1591 20.7435C32.2497 20.5932 31.3161 20.7474 30.5035 21.1824C29.6908 21.6174 29.0446 22.3086 28.6653 23.1487C28.286 23.9889 28.1949 24.9307 28.4062 25.828C26.7433 25.7446 25.1165 25.3125 23.6315 24.5596C22.1464 23.8068 20.8363 22.75 19.7862 21.458C19.4145 22.0964 19.2191 22.8222 19.2202 23.5609C19.2202 25.011 19.9582 26.292 21.0802 27.042C20.4162 27.021 19.7668 26.8417 19.1862 26.519V26.5709C19.1864 27.5367 19.5206 28.4726 20.132 29.22C20.7435 29.9675 21.5947 30.4804 22.5412 30.672C21.9248 30.839 21.2785 30.8636 20.6512 30.7439C20.9181 31.5752 21.4382 32.3021 22.1388 32.8231C22.8394 33.344 23.6853 33.6327 24.5582 33.6489C23.6907 34.3303 22.6974 34.8339 21.6351 35.1311C20.5728 35.4283 19.4623 35.5132 18.3672 35.3809C20.2789 36.6104 22.5043 37.2631 24.7772 37.2609C32.4702 37.2609 36.6772 30.888 36.6772 25.361C36.6772 25.181 36.6722 24.999 36.6642 24.821C37.4831 24.2291 38.1898 23.496 38.7512 22.656L38.7502 22.655Z" fill="white"/>
</g>
<defs>
<clipPath id="clip0_429_3668">
<rect width="24" height="24" fill="white" transform="translate(16.5859 17)"/>
</clipPath>
</defs>
</svg>
