<svg width="120" height="120" viewBox="0 0 120 120" fill="none" xmlns="http://www.w3.org/2000/svg">
<path d="M60 0C93.1401 0 120 26.8653 120 60C120 93.1401 93.1401 120 60 120C26.8653 120 0 93.1374 0 60C0 26.8653 26.8653 0 60 0Z" fill="#F5AC37"/>
<path fill-rule="evenodd" clip-rule="evenodd" d="M31.4258 93.0748V93.299L31.415 93.3071V93.3448H57.4405C60.3863 93.3853 63.3212 93.1504 66.2156 92.632C69.2639 92.0353 72.234 91.0957 75.0663 89.8213C76.2944 89.2525 77.4727 88.5651 78.6614 87.8715C78.9624 87.6959 79.264 87.5199 79.5672 87.3454C80.9659 86.3491 82.3051 85.2691 83.5795 84.1216C87.0679 80.9679 89.768 77.034 91.4555 72.6464C91.5689 72.155 92.0495 71.8391 92.5436 71.9336H99.6311C100.195 71.9336 100.382 71.7446 100.382 71.1074V66.5687C100.42 66.134 100.42 65.6939 100.382 65.2592C100.382 65.1456 100.411 65.0323 100.44 64.9192C100.498 64.6936 100.556 64.4688 100.382 64.244H94.4606C93.7451 64.244 93.7451 64.1684 93.7451 63.5312C93.9503 61.2469 93.9503 58.9546 93.7451 56.6704C93.7073 55.9954 93.8585 55.9954 94.3823 55.9954H99.5582C100.16 55.9954 100.384 55.8442 100.384 55.2448V49.0941C100.366 48.6867 100.356 48.4802 100.248 48.3755C100.137 48.2679 99.9219 48.2679 99.4853 48.2679H92.7731C92.2493 48.357 91.7471 48.0033 91.6526 47.4795C90.8831 45.468 89.9029 43.5429 88.723 41.7419C87.535 39.9653 86.1958 38.2967 84.7108 36.755C82.7371 34.784 80.5204 33.0721 78.1119 31.6546C74.4804 29.5459 70.5087 28.069 66.3749 27.3049C64.3688 26.935 62.3411 26.7109 60.2999 26.6299H32.1764C31.4258 26.6299 31.4258 26.7811 31.4258 27.3805V47.5929C31.4258 48.3057 31.2746 48.3057 30.713 48.3057H22.6507C22.0513 48.3057 22.0513 48.4164 22.0513 48.8295V55.4284C22.0513 56.0278 22.2376 56.0278 22.6885 56.0278H30.8264C31.4258 56.0278 31.4258 56.1385 31.4258 56.5894V63.6392C31.4258 64.2764 31.2368 64.2764 30.7508 64.2764H22.0513V71.4017C22.0513 72.0011 22.2376 72.0011 22.6885 72.0011H30.8264C31.4258 72.0011 31.4258 72.074 31.4258 72.5627V81.3756V84.3376V93.0748ZM83.215 47.6631C83.2798 47.8305 83.2798 48.0168 83.215 48.1869H83.3959C83.3203 48.411 82.945 48.4866 82.945 48.4866H39.6716C38.9588 48.4866 38.9588 48.3354 38.9588 47.7738V34.4627C38.9588 33.974 39.0344 33.7499 39.596 33.7499H59.7328C61.8767 33.731 64.0151 33.9551 66.1076 34.4249C70.2549 35.4077 74.1132 37.3625 77.3586 40.1246C78.0066 40.6079 78.5844 41.1776 79.0839 41.8121C80.1424 42.8624 81.0712 44.0316 81.8596 45.3006C82.3834 46.0431 82.8343 46.8342 83.215 47.6631ZM85.0105 64.2359H62.2115H39.8606C39.4047 64.2359 39.1799 64.2359 39.0692 64.1235C38.9615 64.0143 38.9615 63.799 38.9615 63.3745V56.7001C38.9615 56.1736 39.1127 55.9873 39.6743 55.9873H85.0483C85.537 55.9873 85.7611 56.1736 85.7611 56.6245C85.9474 58.9465 85.9474 61.2793 85.7611 63.5987C85.726 64.2359 85.4965 64.2359 85.0105 64.2359ZM83.215 72.0362C82.5778 71.966 81.9352 71.966 81.298 72.0362H39.7121C39.1505 72.0362 38.9615 72.0362 38.9615 72.7868V85.801C38.9615 86.4004 38.9615 86.5516 39.7121 86.5516H58.912C59.83 86.6218 60.7481 86.557 61.6472 86.3653C64.4336 86.1655 67.1741 85.5607 69.7877 84.5644C70.7382 84.235 71.6562 83.8057 72.5229 83.2899H72.7848C77.2857 80.949 80.9416 77.2716 83.2474 72.7571C83.2474 72.7571 83.5093 72.1901 83.215 72.0416V72.0362Z" fill="#FEFEFD"/>
</svg>
