<svg width="70" height="70" viewBox="0 0 70 70" fill="none" xmlns="http://www.w3.org/2000/svg">
<path d="M63.1873 58.6113C63.1873 58.2768 62.8717 58.0057 62.4824 58.0057H60.7743" fill="#624BFF"/>
<path d="M37.6149 11.195C37.7092 10.9559 37.9726 10.7839 38.2827 10.7839H60.0694C60.4587 10.7839 60.7743 11.055 60.7743 11.3894" fill="#624BFF"/>
<path fill-rule="evenodd" clip-rule="evenodd" d="M62.4824 57.3939H61.3862V11.3893C61.3862 10.6331 60.7062 10.1719 60.0695 10.1719H38.2827C37.646 10.1719 36.9661 10.633 36.9661 11.3893V35.3769V57.3939H33.0334V31.8313V18.6542C33.0334 18.0938 32.6388 17.6674 32.1654 17.5096L10.3787 10.2448L10.3771 10.2443C10.0002 10.1197 9.57229 10.1561 9.22142 10.3626C8.86923 10.5699 8.61335 10.9437 8.61335 11.3894V57.394H7.51761C6.88086 57.394 6.20093 57.8552 6.20093 58.6114C6.20093 59.368 6.88273 59.8287 7.51853 59.8287H62.4824C63.1192 59.8287 63.7991 59.3675 63.7991 58.6113C63.7991 57.8551 63.1192 57.3939 62.4824 57.3939ZM63.1873 58.6113C63.1873 58.2768 62.8717 58.0057 62.4824 58.0057H60.7743M10.1766 10.8224C10.1794 10.8233 10.1823 10.8242 10.1851 10.8252L31.9719 18.09C32.2432 18.1804 32.4216 18.4042 32.4216 18.6542M10.1766 10.8224C10.1794 10.8233 10.1823 10.8242 10.1851 10.8252L31.9719 18.09C32.2432 18.1804 32.4216 18.4042 32.4216 18.6542M32.4216 58.0057H37.5778H32.4216ZM32.4216 58.0057H37.5778H32.4216ZM37.6149 11.195C37.7092 10.9559 37.9726 10.7839 38.2827 10.7839H60.0694C60.4587 10.7839 60.7743 11.055 60.7743 11.3894M30.4023 57.3948L16.8651 57.3944L16.4648 57.3948L11.2484 57.3948L11.2485 13.1232L12.8907 13.6708L30.4023 19.51V29.4591V57.3948ZM39.5999 12.607H58.7537V55.0205V57.3944H39.5999V37.7516V12.607ZM38.9881 58.0062H59.3655H38.9881ZM38.9881 58.0062H59.3655H38.9881ZM38.9881 11.9953V37.2V11.9953Z" fill="#624BFF"/>
</svg>
