<svg width="70" height="70" viewBox="0 0 70 70" fill="none" xmlns="http://www.w3.org/2000/svg">
<path d="M55.6533 16.9275H41.7632V13.655C41.7632 11.5463 40.0177 9.8006 37.9087 9.8006H29.1092C27.0005 9.8006 25.2548 11.5461 25.2548 13.655V16.8551H14.8548C9.90975 16.8551 5.90973 20.9276 5.90973 25.8728V60.1991H64.09V25.8728C64.09 21.0733 60.3077 17.1457 55.6533 16.9275ZM27.145 13.655C27.145 12.5644 28.0175 11.6913 29.1087 11.6913H37.9082C38.9988 11.6913 39.8719 12.5639 39.8719 13.655V16.8551H27.145V13.655ZM14.8542 18.8188H50.0533C47.9445 20.4914 46.6352 22.9644 46.6352 25.8732V44.7817L31.872 44.7812V43.1813C31.872 41.945 30.8538 40.9269 29.6176 40.9269H24.9632C23.7269 40.9269 22.7088 41.945 22.7088 43.1813V44.7812H7.87287V25.8727C7.87287 21.9457 10.9998 18.8188 14.8542 18.8188ZM29.9084 43.1091V48.2728C29.9084 48.4184 29.7628 48.5635 29.6177 48.5635H24.9633C24.8177 48.5635 24.6726 48.4179 24.6726 48.2728V43.1091C24.6726 42.9635 24.8182 42.8184 24.9633 42.8184H29.6177C29.7628 42.8179 29.9084 42.9635 29.9084 43.1091ZM7.87261 46.6723H22.7086V48.2723C22.7086 49.5086 23.7267 50.5267 24.9629 50.5267H29.6174C30.8536 50.5267 31.8717 49.5085 31.8717 48.2723V46.6723H46.6349V58.2355L7.87235 58.236L7.87261 46.6723ZM62.1257 58.2361H48.5988V25.8733C48.5988 22.0914 51.5807 18.9645 55.362 18.8914C59.1438 19.037 62.1252 22.0914 62.1252 25.8733L62.1257 58.2361Z" fill="#624BFF"/>
<path fill-rule="evenodd" clip-rule="evenodd" d="M24.9366 13.655C24.9366 11.3704 26.8247 9.48242 29.1092 9.48242H37.9087C40.1934 9.48242 42.0814 11.3705 42.0814 13.655V16.6094H55.6607L55.6682 16.6097C60.4939 16.8359 64.4082 20.9049 64.4082 25.8728V60.5173H5.59155V25.8728C5.59155 20.7552 9.73069 16.5369 14.8548 16.5369H24.9366V13.655ZM29.1092 10.1188C27.1762 10.1188 25.573 11.7219 25.573 13.655V17.1733H14.8548C10.0888 17.1733 6.2279 21.0999 6.2279 25.8728V59.881H63.7718V25.8728C63.7718 21.2442 60.1255 17.4597 55.6458 17.2457H41.445V13.655C41.445 11.722 39.8419 10.1188 37.9087 10.1188H29.1092ZM29.1087 12.0095C28.1933 12.0095 27.4631 12.74 27.4631 13.655V16.5369H39.5537V13.655C39.5537 12.7396 38.8232 12.0095 37.9082 12.0095H29.1087ZM26.8268 13.655C26.8268 12.3887 27.8417 11.3732 29.1087 11.3732H37.9082C39.1745 11.3732 40.1901 12.3881 40.1901 13.655V17.1733H26.8268V13.655ZM14.8542 19.137C11.1777 19.137 8.19104 22.1193 8.19104 25.8727V44.4631H22.3907V43.1813C22.3907 41.7693 23.5512 40.6088 24.9632 40.6088H29.6176C31.0296 40.6088 32.1901 41.7693 32.1901 43.1813V44.4631L46.317 44.4636V25.8732C46.317 23.1761 47.4064 20.8383 49.2012 19.137H14.8542ZM7.5547 25.8727C7.5547 21.7722 10.8219 18.5006 14.8542 18.5006H50.9665L50.251 19.0681C48.2144 20.6834 46.9534 23.0664 46.9534 25.8732V45.0999L31.5538 45.0994V43.1813C31.5538 42.1207 30.6781 41.2451 29.6176 41.2451H24.9632C23.9027 41.2451 23.027 42.1208 23.027 43.1813V45.0994H7.5547V25.8727ZM55.365 18.5731L55.3742 18.5735C59.3243 18.7255 62.4434 21.9178 62.4434 25.8733L62.4439 58.5542H48.2806V25.8733C48.2806 21.9233 51.3961 18.6498 55.3558 18.5733L55.365 18.5731ZM55.3589 19.2097C51.7604 19.2842 48.917 22.2627 48.917 25.8733V57.9179H61.8075L61.807 25.8733C61.807 22.2681 58.9682 19.3534 55.3589 19.2097ZM29.5902 43.1366H24.9908V48.2453H29.5902V43.1366ZM30.0424 42.6839C30.1417 42.7832 30.2266 42.9328 30.2266 43.1091V48.2728C30.2266 48.4492 30.1415 48.5988 30.0423 48.6979C29.9431 48.7969 29.7936 48.8817 29.6177 48.8817H24.9633C24.7869 48.8817 24.6374 48.7967 24.5382 48.6974C24.4392 48.5982 24.3544 48.4488 24.3544 48.2728V43.1091C24.3544 42.9327 24.4394 42.7831 24.5387 42.684C24.6379 42.5849 24.7874 42.5002 24.9633 42.5002H29.6166M7.55444 46.3542H23.0268V48.2723C23.0268 49.3328 23.9024 50.2085 24.9629 50.2085H29.6174C30.6779 50.2085 31.5535 49.3328 31.5535 48.2723V46.3542H46.9531V58.5537L7.55417 58.5542L7.55444 46.3542ZM8.19077 46.9905L8.19053 57.9179L46.3168 57.9174V46.9905H32.1899V48.2723C32.1899 49.6842 31.0294 50.8448 29.6174 50.8448H24.9629C23.551 50.8448 22.3904 49.6843 22.3904 48.2723V46.9905H8.19077Z" fill="#624BFF"/>
</svg>
