<svg width="70" height="70" viewBox="0 0 70 70" fill="none" xmlns="http://www.w3.org/2000/svg">
<path d="M35.0002 10C28.5202 10 23.2353 15.2844 23.2353 21.765C23.2353 28.245 28.5197 33.5299 35.0002 33.5299C41.4803 33.5299 46.7652 28.245 46.7652 21.765C46.7652 15.2849 41.4808 10 35.0002 10ZM35.0002 12.9409C39.8907 12.9409 43.8236 16.8738 43.8236 21.7643C43.8236 26.6548 39.8907 30.5877 35.0002 30.5877C30.1097 30.5877 26.1768 26.6548 26.1768 21.7643C26.1768 16.8738 30.1097 12.9409 35.0002 12.9409ZM35.0002 36.4703C22.8291 36.4703 12.9414 46.0148 12.9414 57.8858V58.5295C12.9414 59.3417 13.5998 60 14.4119 60C15.224 60 15.8823 59.3417 15.8823 58.5295V57.8858C15.8823 47.6431 24.3591 39.4115 35 39.4115C45.6406 39.4115 54.1176 47.643 54.1176 57.8858V58.5295C54.1176 59.3417 54.776 60 55.5881 60C56.4002 60 57.0585 59.3417 57.0585 58.5295V57.8858C57.0585 46.0147 47.1713 36.4703 35.0002 36.4703Z" fill="#624BFF"/>
</svg>
