<svg width="70" height="70" viewBox="0 0 70 70" fill="none" xmlns="http://www.w3.org/2000/svg">
<path fill-rule="evenodd" clip-rule="evenodd" d="M22.1318 5.84646C21.5277 5.93847 21.0545 6.4128 20.9614 7.01577L20.9611 7.0177L20.9582 7.03475C20.9558 7.04939 20.9524 7.07052 20.9482 7.09785C20.9398 7.15251 20.9281 7.23198 20.9149 7.33383C20.8885 7.53749 20.8555 7.83093 20.8289 8.19474C20.7755 8.92165 20.7468 9.93317 20.8455 11.0728C21.0421 13.3417 21.7492 16.1759 23.8381 18.2561C25.4065 19.818 27.3998 20.6025 29.2523 20.9792C30.8785 21.3098 32.4161 21.3303 33.5055 21.2765V47.5869C25.1868 48.1978 18.2982 53.8652 15.9427 61.5422H10.967C10.5946 61.539 10.2365 61.6844 9.97168 61.9467C9.70654 62.2093 9.55737 62.5669 9.55737 62.94C9.55737 63.3132 9.70654 63.6708 9.97167 63.9334C10.2365 64.1957 10.5946 64.3411 10.967 64.3379H59.0332C59.4056 64.3411 59.7637 64.1957 60.0285 63.9334C60.2937 63.6708 60.4428 63.3132 60.4428 62.94C60.4428 62.5669 60.2937 62.2093 60.0285 61.9467C59.7637 61.6844 59.4056 61.539 59.0332 61.5422H54.0575C51.6834 53.8052 44.7064 48.109 36.3019 47.5729V30.3327C37.3621 30.3966 38.915 30.3969 40.574 30.0805C42.4756 29.7178 44.5451 28.9335 46.1627 27.3227C48.2516 25.2424 48.9586 22.4084 49.155 20.1395C49.2537 19 49.2249 17.9885 49.1715 17.2616C49.1448 16.8978 49.1119 16.6044 49.0854 16.4008C49.0722 16.2989 49.0606 16.2195 49.0522 16.1648C49.0479 16.1375 49.0445 16.1163 49.0421 16.1017L49.0392 16.0846L49.0389 16.083C48.9463 15.4789 48.4719 15.0052 47.8678 14.9133L47.8585 14.9117L47.8219 14.9058C47.7903 14.9008 47.7444 14.8938 47.6851 14.8855C47.5666 14.8688 47.3948 14.8467 47.1779 14.8245C46.7442 14.78 46.1292 14.7348 45.3988 14.7309H45.3966C42.9859 14.7309 39.1993 15.1778 36.5916 17.7743C36.5477 17.8182 36.5044 17.8625 36.4616 17.907C36.487 16.9458 36.4442 15.7258 36.2104 14.4336C35.8595 12.4945 35.0728 10.3618 33.4093 8.70615C30.8425 6.14974 27.1337 5.66976 24.7187 5.66295L24.4206 5.66211L24.4197 5.6649C23.7686 5.67166 23.2192 5.71313 22.8218 5.75477C22.6045 5.77754 22.4324 5.80039 22.3136 5.81773C22.2542 5.8264 22.208 5.83369 22.1763 5.83892L22.1395 5.84511L22.1318 5.84646ZM35.7917 14.3702C36.1626 16.3135 36.0838 18.1109 35.9892 19.096C35.9892 19.0959 35.9891 19.0961 35.9892 19.096C36.009 18.8895 36.0283 18.6471 36.0427 18.3754C36.0972 17.3507 36.0849 15.906 35.7917 14.3702ZM48.644 16.1466C48.644 16.1466 49.865 23.0705 45.8803 27.0388C42.7964 30.1098 37.9403 30.0755 35.9018 29.9022V47.9513C35.9019 47.9513 35.9018 47.9513 35.9018 47.9513V29.9022C36.0252 29.9127 36.159 29.9231 36.3019 29.9319C38.5216 30.0687 42.983 29.924 45.8803 27.0388C49.865 23.0705 48.644 16.1466 48.644 16.1466ZM33.9054 20.8509C31.7663 21.0072 27.1103 20.9497 24.1202 17.9723C26.9355 20.7757 31.2279 20.991 33.5055 20.876C33.6469 20.8688 33.7805 20.86 33.9054 20.8509ZM23.8489 8.52864L23.8488 8.52421C23.7835 8.52749 23.7204 8.53206 23.657 8.5369C23.6265 9.41417 23.6437 10.7165 23.8849 12.0681C24.1629 13.6254 24.7293 15.1962 25.8111 16.2734C26.8937 17.3513 28.4744 17.9162 30.0417 18.1935C31.4004 18.4339 32.7095 18.4514 33.5908 18.4212C33.621 17.544 33.6036 16.2433 33.3627 14.8936C33.0848 13.336 32.5182 11.7651 31.4364 10.6879C30.526 9.78083 29.2541 9.2363 27.9256 8.92109C26.6011 8.60679 25.255 8.52864 24.233 8.52864H23.8489ZM38.2806 19.4832C40.2469 17.5254 43.6873 17.2033 45.7663 17.2069L45.7672 17.1962L45.9632 17.1975L46.0832 17.1987C46.333 17.2009 46.5291 17.2026 46.7262 17.2354C46.7262 17.2352 46.7263 17.2355 46.7262 17.2354C46.5291 17.2026 46.333 17.2009 46.0832 17.1987C46.0445 17.1983 46.0046 17.198 45.9632 17.1975L45.7672 17.1962L45.7663 17.2069C43.6873 17.2033 40.2469 17.5254 38.2806 19.4832C35.95 21.8054 35.9307 26.1434 36.0252 27.8825C36.0252 27.8825 36.0251 27.8825 36.0252 27.8825C35.9307 26.1434 35.95 21.8054 38.2806 19.4832ZM46.1344 17.6075L46.1351 17.5993C46.2118 17.6 46.2799 17.6009 46.3423 17.6027C46.3731 18.4801 46.3567 19.7884 46.1143 21.1463C45.8362 22.7038 45.2698 24.2747 44.1887 25.3521C43.1059 26.4304 41.5251 26.9951 39.9578 27.2721C38.5991 27.5123 37.29 27.5295 36.4087 27.4994C36.3787 26.6222 36.3963 25.3216 36.6373 23.9721C36.9154 22.4147 37.4818 20.8439 38.5629 19.7667C39.4734 18.8601 40.7454 18.3146 42.0737 17.9987C43.3982 17.6837 44.7441 17.6051 45.7657 17.6069L46.1344 17.6075ZM18.4656 61.5421C20.8652 54.7633 27.3307 49.9273 34.9998 49.9268H35.0009C42.6697 49.9273 49.1347 54.7632 51.5351 61.5421C51.582 61.6745 51.6274 61.8077 51.6712 61.9416C49.3869 54.9535 42.8191 49.9268 34.9998 49.9268H35.0009C27.1813 49.9268 20.6128 54.9536 18.3293 61.9416C18.3731 61.8077 18.4187 61.6745 18.4656 61.5421ZM18.8905 61.5421C21.2721 54.9897 27.5543 50.3273 34.9998 50.3268H35.0009C42.4461 50.3273 48.7279 54.9896 51.1102 61.5421H18.8905Z" fill="#624BFF"/>
</svg>
