<svg width="140" height="41" viewBox="0 0 140 41" fill="none" xmlns="http://www.w3.org/2000/svg">
<g clip-path="url(#clip0_454_3909)">
<mask id="mask0_454_3909" style="mask-type:luminance" maskUnits="userSpaceOnUse" x="3" y="8" width="131" height="26">
<path d="M133.742 8.57117H3.33984V33.2027H133.742V8.57117Z" fill="white"/>
</mask>
<g mask="url(#mask0_454_3909)">
<path fill-rule="evenodd" clip-rule="evenodd" d="M130.172 29.1355C130.068 29.0561 129.953 28.9957 129.83 28.9566C129.686 28.9012 129.533 28.8718 129.38 28.8697C129.188 28.8637 129.001 28.9298 128.852 29.0558C128.71 29.1764 128.615 29.3458 128.583 29.5331C128.561 29.6408 128.562 29.7525 128.587 29.8596C128.609 29.9529 128.655 30.0382 128.721 30.1062C128.849 30.216 128.99 30.3097 129.14 30.3851L129.475 30.5676C129.754 30.7193 129.936 30.9003 130.021 31.1104C130.105 31.3206 130.118 31.5881 130.057 31.9128C129.991 32.265 129.8 32.5638 129.483 32.8093C129.166 33.0547 128.781 33.1776 128.326 33.178C127.926 33.178 127.604 33.0798 127.358 32.8833L127.692 32.2937C127.807 32.3914 127.938 32.4657 128.079 32.5131C128.221 32.5684 128.371 32.5983 128.522 32.6015C128.744 32.6076 128.961 32.5354 129.138 32.3966C129.302 32.2701 129.415 32.0835 129.453 31.874C129.483 31.7266 129.47 31.5729 129.413 31.4339C129.358 31.298 129.183 31.1502 128.887 30.9904L128.557 30.8142C128.277 30.6647 128.096 30.4874 128.013 30.2822C127.929 30.0773 127.914 29.8307 127.967 29.5425C128.031 29.1952 128.215 28.8847 128.485 28.6712C128.764 28.4414 129.11 28.3191 129.465 28.3253C129.963 28.3253 130.293 28.4098 130.456 28.5784L130.172 29.1355ZM117.859 28.9818L117.616 30.2858H119.102L119.001 30.83H117.515L117.199 32.5209H119.239L119.132 33.0976H116.478L117.351 28.4051H120.038L119.932 28.9818H117.859ZM108.435 30.4987C108.248 30.7151 108.003 30.8684 107.732 30.9386L108.636 33.0976H107.933L107.107 31.0832C106.97 31.0832 106.755 31.0723 106.462 31.0509L106.08 33.0976H105.466L106.34 28.4051C106.362 28.4051 106.523 28.3973 106.821 28.3815C107.121 28.3656 107.337 28.3578 107.472 28.3578C108.554 28.3578 109.011 28.8061 108.844 29.7028C108.786 30.0043 108.643 30.281 108.435 30.4987ZM108.036 29.1226C107.878 29.0076 107.604 28.9501 107.215 28.9501C107.154 28.9501 107.03 28.9609 106.846 28.9818L106.563 30.5066C106.703 30.5279 106.845 30.5387 106.987 30.539C107.355 30.539 107.635 30.4768 107.826 30.3528C108.017 30.2286 108.142 30.0076 108.202 29.6899C108.25 29.4275 108.195 29.2384 108.036 29.1226ZM96.4853 32.7791C96.1524 33.045 95.7413 33.178 95.252 33.178C94.7481 33.178 94.3844 33.0477 94.1607 32.7869C93.9371 32.5263 93.8705 32.1526 93.9609 31.6662L94.5675 28.4051H95.1817L94.584 31.618C94.5303 31.9041 94.5735 32.1394 94.7136 32.324C94.8528 32.5088 95.066 32.6012 95.3527 32.6015C95.6305 32.6131 95.9026 32.5176 96.117 32.3333C96.3316 32.149 96.4734 31.8888 96.5157 31.6022L97.1107 28.4051H97.7249L97.1175 31.6691C97.0488 32.109 96.8231 32.5056 96.4853 32.7791ZM85.0573 28.9818L84.2914 33.0976H83.6772L84.4431 28.9818H83.012L83.1195 28.4051H86.6602L86.5533 28.9818H85.0573ZM74.1561 33.1615L72.4698 29.7316L71.843 33.0976H71.2593L72.1327 28.4051H72.3781L74.0381 31.6497L74.642 28.4051H75.2252L74.3401 33.1615H74.1561ZM61.5975 28.9818L61.3548 30.2858H62.8411L62.7396 30.83H61.2533L60.9384 32.5209H62.9776L62.8706 33.0976H60.2172L61.0901 28.4051H63.7772L63.6704 28.9818H61.5975ZM50.0695 33.1615L49.2773 28.4051H49.9591L50.4741 31.8617L52.232 28.4051H52.8925L50.3797 33.1615H50.0695Z" fill="#5B619B"/>
<path fill-rule="evenodd" clip-rule="evenodd" d="M133.657 18.4721L132.488 24.7533H129.342L130.282 19.7022C130.474 18.6662 130.098 18.0192 129.291 18.0192C128.463 18.0192 127.846 18.6662 127.653 19.7022L126.713 24.7533H123.567L124.507 19.7022C124.7 18.6662 124.324 18.0192 123.516 18.0192C122.709 18.0192 122.071 18.6662 121.878 19.7022L120.939 24.7533H117.792L119.552 15.2995H122.553L122.291 16.7021C123.659 15.4721 124.526 15.04 125.623 15.04C126.823 15.04 127.509 15.5799 127.93 16.8747C129.26 15.5152 130.135 15.04 131.273 15.04C133.115 15.04 134.043 16.4002 133.657 18.4721ZM111.472 25.2062C108.554 25.2062 106.865 23.048 107.427 20.0264C107.99 17.0048 110.481 14.8459 113.4 14.8459C116.319 14.8459 118.007 17.0041 117.445 20.0264C116.882 23.0488 114.391 25.2062 111.472 25.2062ZM112.95 17.2636C111.708 17.2636 110.766 18.3212 110.437 20.0911C110.132 21.7317 110.701 22.7892 111.922 22.7892C113.144 22.7892 114.106 21.7317 114.423 20.0264C114.74 18.3212 114.172 17.2636 112.95 17.2636ZM104.136 17.695C102.542 17.695 101.301 18.6878 101.028 20.1558C100.787 21.4506 101.592 22.3571 103.019 22.3571C103.465 22.353 103.909 22.2878 104.339 22.163C105.087 21.9258 105.45 21.7533 106.328 21.1486L105.448 24.3212C104.173 24.9474 103.152 25.2062 102.034 25.2062C99.0533 25.2062 97.3401 23.0696 97.9061 20.0264C98.4804 16.9394 101.085 14.8459 104.313 14.8459C105.494 14.8459 106.418 15.1047 107.303 15.6878L106.446 18.5153C105.565 17.9106 104.984 17.695 104.136 17.695ZM94.1131 25.2062C93.161 25.2062 92.5475 24.3867 92.7323 23.3932C92.917 22.3996 93.8359 21.58 94.788 21.58C95.7608 21.58 96.3943 22.4003 96.2095 23.3932C96.0248 24.386 95.0859 25.2062 94.1131 25.2062ZM92.3241 15.2125C91.8644 15.9034 91.5597 16.2061 90.6813 16.81C91.896 17.846 92.2828 18.8819 91.9981 20.4146C91.4755 23.2206 88.8586 25.2717 85.7749 25.2717C84.574 25.2717 83.4097 24.969 82.4418 24.3867C81.9557 24.1056 81.804 24.0042 81.1505 23.3996C81.5311 22.8692 81.8727 22.3094 82.1721 21.7252C82.6678 20.7259 82.7561 20.0509 82.7561 20.0509C83.2222 20.5476 84.0039 21.1055 84.3699 21.3643C84.9807 21.7533 85.6811 21.9905 86.2817 21.9905C87.5239 21.9905 88.4959 21.2134 88.7049 20.0911C88.8138 19.5081 88.6739 19.0336 88.3167 18.7309C87.8093 18.3427 87.2123 18.2133 85.6019 18.1917L86.0755 15.6446C87.2391 15.623 87.6858 15.5583 88.3339 15.2995C89.1391 14.9753 89.641 14.393 89.7775 13.659C89.9422 12.774 89.4425 12.2341 88.4284 12.2341C87.952 12.2341 87.4729 12.3635 86.9731 12.6014C86.4698 12.8602 86.181 13.0759 85.5102 13.6805L84.0026 11.4354C85.8721 9.73008 87.3461 9.03992 89.0641 9.03992C91.7961 9.03992 93.5169 10.9177 93.0507 13.421C92.9224 14.0617 92.6756 14.6702 92.3241 15.2125ZM75.8773 25.2062C75.1114 25.2062 74.3241 25.0984 73.3004 24.818L73.064 24.7533L70.951 25.2062L73.7989 9.90334L77.0576 9.29874L75.9008 15.5152C76.7964 15.04 77.4533 14.8459 78.2605 14.8459C80.7238 14.8459 82.1639 17.0041 81.6297 19.8754C81.0553 22.9618 78.6301 25.2062 75.8773 25.2062ZM77.0127 17.4362C76.5157 17.4362 76.0158 17.5656 75.4747 17.8028L74.5833 22.5951C74.9157 22.7261 75.2684 22.7919 75.6236 22.7892C77.0307 22.7892 78.2909 21.58 78.5881 19.9833C78.8693 18.4721 78.2337 17.4362 77.0127 17.4362ZM70.4456 20.4146H64.1743C64.0516 22.0768 64.7472 22.7892 66.423 22.7892C67.4791 22.7892 68.21 22.5304 69.4433 21.6886H69.8155L69.0151 24.3212C67.6323 24.969 66.636 25.2062 65.4144 25.2062C62.3514 25.2062 60.7383 23.3068 61.2926 20.3284C61.8834 17.1558 64.4445 14.8459 67.3841 14.8459C70.0334 14.8459 71.2715 16.4218 70.7656 19.1414C70.684 19.5723 70.5772 19.9975 70.4456 20.4146ZM66.8994 17.0041C65.8026 17.0041 64.9415 17.7381 64.428 19.163H68.3609C68.5347 17.7812 68.017 17.0041 66.8994 17.0041ZM53.9726 25.2717L52.3946 17.1773L47.846 25.2717H47.5978L44.457 9.55754H47.3711L49.0773 17.9595L53.9299 9.03992H54.1988L55.7231 17.1989L59.9187 9.55754H63.1063L54.1795 25.2717H53.9726Z" fill="#5B619B"/>
<path fill-rule="evenodd" clip-rule="evenodd" d="M7.90292 12.5964L28.9368 12.6194L21.1323 20.9898L29.0086 29.4104H8.09112V27.2709H23.8995L18.1052 20.9811L23.9485 14.7359H7.90292V12.5964ZM11.3147 16.705L19.249 16.7028L15.471 20.9898L19.249 25.2271L11.3402 25.2601V23.1199H14.2543L12.4439 20.9811L14.2053 18.8452H11.3147V16.705ZM27.2789 20.9898L38.5691 33.2028H3.66246V31.0633H33.4544L24.2518 20.9811L33.8081 10.7531H3.33984V8.61717L38.9661 8.57117L27.2789 20.9898Z" fill="#5B619B"/>
</g>
</g>
<defs>
<clipPath id="clip0_454_3909">
<rect width="130.402" height="24.6316" fill="white" transform="translate(3.34766 8.57507)"/>
</clipPath>
</defs>
</svg>
