<svg width="140" height="41" viewBox="0 0 140 41" fill="none" xmlns="http://www.w3.org/2000/svg">
<g clip-path="url(#clip0_454_3884)">
<path fill-rule="evenodd" clip-rule="evenodd" d="M32.3448 9.18587C32.524 9.44812 32.5838 9.71038 32.5838 10.0382C32.5838 11.4805 32.524 12.9229 32.3448 14.3652C32.3448 14.4963 32.285 14.693 32.2252 14.8897L20.0271 11.0872L7.88881 14.8897C7.88881 14.693 7.82902 14.5619 7.82902 14.3652C7.64964 12.9229 7.58984 11.4805 7.58984 10.0382C7.58984 9.71038 7.64964 9.44812 7.82902 9.18587C8.0084 8.92364 8.24758 8.79251 8.54655 8.66138C9.86203 8.26803 20.0271 5.05554 20.0869 5.05554C20.1467 5.05554 30.3715 8.26803 31.6272 8.66138C31.9262 8.72696 32.1654 8.85806 32.3448 9.18587ZM8.18779 16.7254C8.54655 18.6266 9.0847 20.4624 9.80224 22.2981L20.0869 19.0856L30.3715 22.2981C31.089 20.4624 31.6272 18.6266 31.986 16.7254L20.0869 12.9884L8.18779 16.7254ZM10.5796 24.0026C10.6394 24.1338 10.6394 24.1993 10.6992 24.2649C11.4765 25.8384 12.3734 27.3463 13.4497 28.723C13.6889 29.0508 13.6889 29.0508 13.6889 29.0508L20.1467 27.084L26.6045 29.0508C26.6045 29.0508 26.6045 29.0508 26.8437 28.723C27.8601 27.3463 28.8169 25.8384 29.5942 24.2649C29.654 24.1993 29.654 24.0682 29.7138 24.0026L20.2065 20.9868L10.5796 24.0026ZM96.5042 19.1511H90.0465V15.8075H95.7269V13.8407H90.0465V10.6282H96.4444V8.66138H88.0733V21.0524H96.5042V19.1511ZM100.809 21.118H98.8363V8.72696H103.859C106.43 8.72696 108.044 10.2349 108.044 12.6606C108.044 14.693 106.908 15.9386 105.354 16.3976L108.403 21.0524H106.071L103.321 16.7254H100.869V21.118H100.809ZM100.809 14.8897H103.68C105.115 14.8897 106.011 14.1029 106.011 12.7917C106.011 11.415 105.115 10.6938 103.68 10.6938H100.809V14.8897ZM65.5905 21.118H63.5575L68.5205 8.66138H70.3741L75.337 21.118H73.2442L72.1081 18.1022H66.7862L65.5905 21.118ZM67.504 16.2009H71.3906L69.4174 11.2183L67.504 16.2009ZM14.8848 30.5587C14.9446 30.6899 15.0044 30.7554 15.0641 30.821C15.2435 31.0177 15.3631 31.1488 15.5425 31.3455C16.7384 32.5911 18.0539 33.7056 19.4889 34.689C19.6683 34.8201 19.9075 34.8857 20.0869 34.8857C20.2663 34.8857 20.5054 34.8201 20.6848 34.689C22.1199 33.7056 23.4354 32.6566 24.6313 31.3455C24.8106 31.1488 24.9302 31.0177 25.1096 30.821C25.1694 30.7554 25.2292 30.6899 25.289 30.5587C25.289 30.5587 20.2065 28.9853 20.0869 28.9853C19.9673 28.9197 14.8848 30.5587 14.8848 30.5587ZM44.5428 21.118H40.3571V8.72696H44.5428C48.0708 8.72696 50.5222 11.415 50.5222 14.8897C50.5222 18.3644 48.0708 21.118 44.5428 21.118ZM42.2705 19.1511H44.483C46.8748 19.1511 48.3696 17.381 48.3696 14.9553C48.3696 12.5295 46.815 10.7593 44.483 10.7593H42.2705V19.1511ZM85.2031 25.7728L88.6113 33.9679H87.7144L86.8175 31.8044H82.7514L81.8545 33.9679H81.0175L84.4256 25.7728H85.2031ZM86.5185 31.0177L84.8443 26.8218L83.1701 31.0177H86.5185ZM78.6854 33.9679H79.5225V25.8384H78.6854V33.9679ZM88.6113 26.6906H91.1226V34.0335H91.9599V26.6906H94.4712V25.8384H88.6113V26.6906ZM43.4664 25.7728L46.8748 33.9679H45.9779L45.081 31.8044H41.015L40.1181 33.9679H39.281L42.6892 25.7728H43.4664ZM44.7222 31.0177L43.048 26.8218L41.3736 31.0177H44.7222ZM79.2835 21.118H77.3102V8.72696H81.7349C84.3658 8.72696 86.0402 10.366 86.0402 12.8573C86.0402 15.6764 84.0072 17.1187 81.5555 17.1187H79.3433V21.118H79.2835ZM79.2835 15.1519H81.6153C83.1103 15.1519 84.067 14.2341 84.067 12.9229C84.067 11.4805 83.1103 10.6938 81.6153 10.6938H79.2835V15.1519ZM96.863 30.2965H100.929V29.4442H96.863V26.6251H101.407V25.7728H96.0257V33.9679H101.467V33.1157H96.863V30.2965ZM105.832 29.4442C104.218 29.0508 103.799 28.6575 103.799 27.8707C103.799 27.1496 104.397 26.5595 105.414 26.5595C106.191 26.5595 106.849 26.8218 107.566 27.4774L108.044 26.7562C107.267 26.1006 106.49 25.7728 105.414 25.7728C103.978 25.7728 102.962 26.6906 102.962 28.0019C102.962 29.3786 103.739 29.9687 105.473 30.3621C107.028 30.7554 107.387 31.1488 107.387 31.9355C107.387 32.7878 106.729 33.3124 105.713 33.3124C104.696 33.3124 103.919 32.9189 103.141 32.1323L102.603 32.7878C103.5 33.64 104.457 34.0991 105.653 34.0991C107.148 34.0991 108.224 33.1812 108.224 31.8044C108.224 30.5587 107.506 29.8376 105.832 29.4442ZM57.5182 29.4442C55.9039 29.0508 55.4852 28.6575 55.4852 27.8707C55.4852 27.1496 56.083 26.5595 57.0996 26.5595C57.8771 26.5595 58.5347 26.8218 59.2522 27.4774L59.7307 26.7562C58.9532 26.1006 58.1759 25.7728 57.0996 25.7728C55.6646 25.7728 54.6481 26.6906 54.6481 28.0019C54.6481 29.3786 55.4254 29.9687 57.1594 30.3621C58.7142 30.7554 59.0728 31.1488 59.0728 31.9355C59.0728 32.7878 58.4151 33.3124 57.3986 33.3124C56.3821 33.3124 55.6048 32.9189 54.8275 32.1323L54.2893 32.7878C55.1861 33.64 56.1429 34.0991 57.3388 34.0991C58.8338 34.0991 59.9099 33.1812 59.9099 31.8044C59.9697 30.5587 59.1924 29.8376 57.5182 29.4442ZM74.1411 33.3124C72.5267 33.3124 71.271 31.8044 71.271 29.9031C71.271 28.0019 72.5267 26.5595 74.1411 26.5595C75.1576 26.5595 75.8751 27.0185 76.4729 27.6741L77.071 27.0185C76.3535 26.2317 75.5162 25.7072 74.1411 25.7072C71.9286 25.7072 70.3741 27.6085 70.3741 29.9687C70.3741 32.329 71.9884 34.1646 74.0813 34.1646C75.4566 34.1646 76.2937 33.5744 77.071 32.7222L76.5327 32.1323C75.8751 32.8534 75.1576 33.3124 74.1411 33.3124ZM50.8213 29.4442C49.2067 29.0508 48.7883 28.6575 48.7883 27.8707C48.7883 27.1496 49.3861 26.5595 50.4026 26.5595C51.1799 26.5595 51.8378 26.8218 52.5553 27.4774L53.0335 26.7562C52.2562 26.1006 51.4789 25.7728 50.4026 25.7728C48.9677 25.7728 47.9512 26.6906 47.9512 28.0019C47.9512 29.3786 48.7284 29.9687 50.4624 30.3621C52.0172 30.7554 52.3758 31.1488 52.3758 31.9355C52.3758 32.7878 51.7182 33.3124 50.7017 33.3124C49.6852 33.3124 48.9079 32.9189 48.1304 32.1323L47.5923 32.7878C48.4892 33.64 49.4459 34.0991 50.6419 34.0991C52.1366 34.0991 53.2129 33.1812 53.2129 31.8044C53.2727 30.5587 52.4955 29.8376 50.8213 29.4442ZM68.9389 29.9031C68.9389 32.1979 67.3843 34.1646 65.1121 34.1646C62.8398 34.1646 61.3451 32.1979 61.3451 29.9687C61.3451 27.6741 62.8996 25.7072 65.1719 25.7072C67.4441 25.7072 68.9389 27.6085 68.9389 29.9031ZM68.1018 29.9031C68.1018 28.0674 66.8461 26.494 65.1719 26.494C63.4977 26.494 62.242 28.0019 62.242 29.9031C62.242 31.8044 63.4977 33.3124 65.1719 33.3124C66.8461 33.3124 68.1018 31.8044 68.1018 29.9031ZM62.4812 21.118H60.1491L57.3986 16.7909H54.9472V21.118H52.9739V8.72696H57.9965C60.5678 8.72696 62.1821 10.2349 62.1821 12.6606C62.1821 14.693 61.046 15.9386 59.4915 16.3976L62.4812 21.118ZM57.8173 14.8897C59.2522 14.8897 60.1491 14.1029 60.1491 12.7917C60.1491 11.415 59.2522 10.6938 57.8173 10.6938H54.9472V14.8241H57.8173V14.8897Z" fill="#5B619B"/>
</g>
<defs>
<clipPath id="clip0_454_3884">
<rect width="100.974" height="30.0009" fill="white" transform="translate(7.51172 5.05554)"/>
</clipPath>
</defs>
</svg>
