<svg width="141" height="41" viewBox="0 0 141 41" fill="none" xmlns="http://www.w3.org/2000/svg">
<g clip-path="url(#clip0_454_3901)">
<g clip-path="url(#clip1_454_3901)">
<path fill-rule="evenodd" clip-rule="evenodd" d="M14.3789 30.0907L33.5973 14.0873C33.8327 13.882 34.0235 13.6306 34.1577 13.3486C34.2919 13.0666 34.3667 12.76 34.3776 12.4479C34.3885 12.1357 34.335 11.8247 34.2207 11.5341C34.1063 11.2434 33.9335 10.9794 33.7129 10.7583C33.4917 10.5372 33.2275 10.364 32.9366 10.2494C32.6456 10.1348 32.3342 10.0812 32.0217 10.0921C31.7092 10.1029 31.4022 10.1779 31.12 10.3124C30.8377 10.4469 30.586 10.638 30.3807 10.8739L14.3789 30.0907ZM23.65 13.0449L15.558 19.1133L21.627 11.022C21.7511 10.8566 21.9093 10.7198 22.0909 10.6207C22.2725 10.5217 22.4732 10.4628 22.6795 10.448C22.8859 10.4332 23.0929 10.4628 23.2867 10.535C23.4806 10.6071 23.6567 10.72 23.8032 10.866C23.9499 11.0123 24.0634 11.1884 24.136 11.3824C24.2087 11.5764 24.2388 11.7838 24.2242 11.9904C24.2097 12.1971 24.151 12.3982 24.0519 12.5801C23.9528 12.762 23.8157 12.9205 23.65 13.0449ZM33.4473 22.8431L25.3553 28.9116L31.4243 20.8203C31.5485 20.6548 31.7067 20.518 31.8882 20.4189C32.0698 20.3199 32.2705 20.261 32.4768 20.2462C32.6831 20.2314 32.8902 20.2611 33.084 20.3332C33.2779 20.4053 33.454 20.5182 33.6005 20.6642C33.7472 20.8105 33.8607 20.9866 33.9334 21.1806C34.006 21.3746 34.0361 21.582 34.0215 21.7886C34.007 21.9953 33.9482 22.1964 33.8491 22.3783C33.75 22.5603 33.613 22.7188 33.4473 22.8431Z" fill="#5B619B"/>
<path fill-rule="evenodd" clip-rule="evenodd" d="M45.0937 20.0896C45.0937 17.4482 47.339 15.161 50.4509 15.161C51.9935 15.161 53.3715 15.7239 54.3516 16.6085C54.4102 16.6614 54.5004 16.6594 54.5549 16.6023L56.4287 14.6387C56.4832 14.5816 56.4812 14.4911 56.4232 14.4376C54.8754 13.0116 52.7512 12.161 50.4509 12.161C45.8463 12.161 42.0938 15.6318 42.0938 20.0896C42.0938 24.5473 45.8463 28.0182 50.4509 28.0182C52.4981 28.0182 54.5215 27.3317 56.0202 26.1544L56.5391 25.7469C56.5736 25.7199 56.5937 25.6784 56.5937 25.6346V24.9748V23.661V23.5077V20.0896V18.9467C56.5937 18.8678 56.5298 18.8039 56.4509 18.8039H52.6553C52.616 18.8039 52.5785 18.8201 52.5515 18.8487L50.1242 21.4201C50.0382 21.5112 50.1028 21.661 50.2281 21.661H53.4509C53.5298 21.661 53.5937 21.7249 53.5937 21.8039V23.5077V23.661V24.1018C53.5937 24.1526 53.5669 24.1996 53.5227 24.2246C52.6522 24.7162 51.5674 25.0182 50.4509 25.0182C47.339 25.0182 45.0937 22.7309 45.0937 20.0896ZM96.093 12.5182H92.7309C92.6138 12.5182 92.5466 12.6522 92.6166 12.7465L98.0959 20.0969C98.1345 20.148 98.1337 20.2183 98.0952 20.2689L92.6216 27.4315C92.5502 27.5255 92.6173 27.6611 92.7352 27.6611H96.3745C96.4202 27.6611 96.4623 27.6398 96.4895 27.6036L99.9766 22.9262C100.034 22.8495 100.148 22.8495 100.205 22.9262L103.692 27.6036C103.719 27.6398 103.762 27.6611 103.807 27.6611H107.446C107.564 27.6611 107.632 27.5255 107.559 27.4315L102.087 20.2689C102.048 20.2183 102.047 20.148 102.085 20.0969L107.565 12.7465C107.635 12.6522 107.568 12.5182 107.45 12.5182H104.089C104.044 12.5182 104.002 12.539 103.975 12.5743L100.204 17.5088C100.147 17.5837 100.034 17.5837 99.9773 17.5088L96.2066 12.5743C96.1795 12.539 96.1373 12.5182 96.093 12.5182ZM69.5722 12.5181H66.3295C66.273 12.5181 66.2218 12.5514 66.199 12.603L59.6113 27.4602C59.5695 27.5547 59.6386 27.6609 59.742 27.6609H62.857C62.914 27.6609 62.9655 27.6271 62.9881 27.5747L64.2472 24.661H71.6546L72.9137 27.5747C72.9362 27.6271 72.9878 27.6609 73.0448 27.6609H76.1599C76.2632 27.6609 76.3323 27.5547 76.2905 27.4602L69.7029 12.603C69.68 12.5514 69.6287 12.5181 69.5722 12.5181ZM70.4817 21.9467H65.42L67.8197 16.3931C67.8694 16.2781 68.0324 16.2781 68.082 16.3931L70.4817 21.9467ZM79.8745 12.5182C79.7955 12.5182 79.7316 12.5821 79.7316 12.661V27.5182C79.7316 27.5971 79.7955 27.661 79.8745 27.661H82.2316H83.0173H88.2337C88.2773 27.661 88.3187 27.641 88.3459 27.6067L90.263 25.1781C90.3373 25.0844 90.2702 24.9467 90.1509 24.9467H83.1602V12.661C83.1602 12.5821 83.0962 12.5182 83.0173 12.5182H79.8745ZM114.451 15.3753C114.451 15.2964 114.515 15.2324 114.594 15.2324H123.451C123.529 15.2324 123.594 15.1685 123.594 15.0896V12.661C123.594 12.5821 123.529 12.5182 123.451 12.5182H111.165C111.164 12.5182 111.162 12.5182 111.161 12.5182C111.084 12.5182 111.022 12.5802 111.022 12.6566V27.5182C111.022 27.5972 111.087 27.6611 111.165 27.6611H114.451V27.661H123.737C123.815 27.661 123.879 27.5971 123.879 27.5182V25.0896C123.879 25.0107 123.815 24.9467 123.737 24.9467H114.594C114.515 24.9467 114.451 24.8828 114.451 24.8039V21.5182C114.451 21.4392 114.515 21.3753 114.594 21.3753H122.879C122.958 21.3753 123.022 21.3114 123.022 21.2324V18.8039C123.022 18.7249 122.958 18.661 122.879 18.661H114.594C114.515 18.661 114.451 18.5971 114.451 18.5182V15.3753Z" fill="#5B619B"/>
</g>
</g>
<defs>
<clipPath id="clip0_454_3901">
<rect width="112" height="20" fill="white" transform="translate(14.3984 10.0555)"/>
</clipPath>
<clipPath id="clip1_454_3901">
<rect width="109.5" height="20" fill="white" transform="translate(14.3789 10.0907)"/>
</clipPath>
</defs>
</svg>
