<svg width="140" height="41" viewBox="0 0 140 41" fill="none" xmlns="http://www.w3.org/2000/svg">
<path d="M20.182 9.45V20.656C20.182 22.5627 19.5233 24.1487 18.206 25.414C16.9233 26.6793 15.3027 27.312 13.344 27.312C12.1133 27.312 10.9953 27.052 9.99 26.532C8.98467 25.9947 8.17 25.2493 7.546 24.296L9.704 22.892C10.068 23.516 10.5707 24.01 11.212 24.374C11.8707 24.738 12.59 24.92 13.37 24.92C14.6353 24.8853 15.658 24.478 16.438 23.698C17.27 22.8833 17.686 21.8693 17.686 20.656V9.45H20.182ZM24.4553 25.544C23.294 24.3827 22.7133 22.918 22.7133 21.15C22.7133 19.382 23.294 17.9173 24.4553 16.756C25.634 15.5773 27.0987 14.988 28.8493 14.988C30.6 14.988 32.0647 15.5773 33.2433 16.756C34.422 17.9347 35.0113 19.3993 35.0113 21.15C35.0113 22.9007 34.422 24.3653 33.2433 25.544C32.0647 26.7227 30.6 27.312 28.8493 27.312C27.0987 27.312 25.634 26.7227 24.4553 25.544ZM26.1973 18.446C25.504 19.1567 25.1573 20.058 25.1573 21.15C25.1573 22.242 25.504 23.1433 26.1973 23.854C26.8907 24.582 27.7747 24.946 28.8493 24.946C29.8893 24.946 30.7647 24.582 31.4753 23.854C32.186 23.1087 32.5413 22.2073 32.5413 21.15C32.5413 20.0927 32.186 19.1913 31.4753 18.446C30.7647 17.718 29.8893 17.354 28.8493 17.354C27.7747 17.354 26.8907 17.718 26.1973 18.446ZM37.3759 27V8.15H39.7159V16.99C40.5999 15.6553 41.8999 14.988 43.6159 14.988C44.9679 14.988 46.1033 15.43 47.0219 16.314C47.9233 17.1633 48.3739 18.264 48.3739 19.616V27H46.0079V20.266C46.0079 19.3993 45.7133 18.68 45.1239 18.108C44.5519 17.536 43.8239 17.25 42.9399 17.25C42.0213 17.25 41.2499 17.5447 40.6259 18.134C40.0193 18.706 39.7159 19.4253 39.7159 20.292V27H37.3759ZM51.2646 27V15.3H53.6046V16.99C54.4886 15.6553 55.7626 14.988 57.4266 14.988C58.7786 14.988 59.8966 15.43 60.7806 16.314C61.6646 17.1633 62.1066 18.2553 62.1066 19.59V27H59.7406V20.266C59.7406 19.3993 59.4546 18.68 58.8826 18.108C58.3106 17.536 57.5999 17.25 56.7506 17.25C55.8666 17.25 55.1213 17.5447 54.5146 18.134C53.9079 18.706 53.6046 19.4253 53.6046 20.292V27H51.2646ZM83.3793 9.45V20.656C83.3793 22.5627 82.7206 24.1487 81.4033 25.414C80.1206 26.6793 78.4999 27.312 76.5413 27.312C75.3106 27.312 74.1926 27.052 73.1873 26.532C72.1819 25.9947 71.3673 25.2493 70.7433 24.296L72.9013 22.892C73.2653 23.516 73.7679 24.01 74.4093 24.374C75.0679 24.738 75.7873 24.92 76.5673 24.92C77.8326 24.8853 78.8553 24.478 79.6353 23.698C80.4673 22.8833 80.8833 21.8693 80.8833 20.656V9.45H83.3793ZM91.6566 14.988C93.1646 14.988 94.4559 15.4993 95.5306 16.522V15.3H97.8706V27H95.5306V25.778C94.4559 26.8007 93.1646 27.312 91.6566 27.312C90.0446 27.312 88.6753 26.7227 87.5486 25.544C86.4566 24.3827 85.9106 22.918 85.9106 21.15C85.9106 19.3993 86.4566 17.9347 87.5486 16.756C88.6753 15.5773 90.0446 14.988 91.6566 14.988ZM94.4386 18.446C93.7626 17.718 92.9219 17.354 91.9166 17.354C90.9286 17.354 90.0793 17.718 89.3686 18.446C88.6926 19.174 88.3546 20.0753 88.3546 21.15C88.3546 22.2247 88.6926 23.126 89.3686 23.854C90.0793 24.582 90.9286 24.946 91.9166 24.946C92.9219 24.946 93.7626 24.582 94.4386 23.854C95.1319 23.1433 95.4786 22.242 95.4786 21.15C95.4786 20.058 95.1319 19.1567 94.4386 18.446ZM103.116 15.3V16.99C104 15.6553 105.274 14.988 106.938 14.988C107.129 14.988 107.25 14.9967 107.302 15.014V17.64C107.042 17.5187 106.696 17.458 106.262 17.458C105.361 17.458 104.607 17.744 104 18.316C103.411 18.888 103.116 19.6073 103.116 20.474V27H100.776V15.3H103.116ZM112.951 27L108.011 15.3H110.455L114.043 23.984L117.631 15.3H120.075L115.135 27H112.951ZM132.913 22.008H123.241C123.431 22.9093 123.873 23.6547 124.567 24.244C125.277 24.816 126.118 25.102 127.089 25.102C128.389 25.102 129.42 24.6167 130.183 23.646L132.471 24.348C131.951 25.2493 131.205 25.9687 130.235 26.506C129.281 27.0433 128.233 27.312 127.089 27.312C125.321 27.312 123.83 26.7227 122.617 25.544C121.421 24.3653 120.823 22.9007 120.823 21.15C120.823 19.382 121.403 17.9173 122.565 16.756C123.743 15.5773 125.191 14.988 126.907 14.988C128.605 14.988 130.044 15.5773 131.223 16.756C132.384 17.9173 132.965 19.382 132.965 21.15C132.965 21.4793 132.947 21.7653 132.913 22.008ZM123.267 20.136H130.547C130.339 19.252 129.897 18.5413 129.221 18.004C128.545 17.4667 127.756 17.198 126.855 17.198C125.988 17.198 125.217 17.4753 124.541 18.03C123.882 18.5673 123.457 19.2693 123.267 20.136Z" fill="#5B619B"/>
</svg>
