<svg width="141" height="41" viewBox="0 0 141 41" fill="none" xmlns="http://www.w3.org/2000/svg">
<g clip-path="url(#clip0_454_3889)">
<path fill-rule="evenodd" clip-rule="evenodd" d="M25.8239 9.94344L23.3293 7.37092C21.6468 8.74683 20.2577 10.4466 19.2444 12.3694C18.2312 14.2922 17.6143 16.3989 17.4305 18.5646C17.2467 20.7303 17.4997 22.9108 18.1745 24.9768C18.8492 27.0429 19.932 28.9524 21.3586 30.5922L20.0738 31.9112C17.0258 28.4966 15.3859 24.0533 15.4847 19.4774C15.5835 14.9014 17.4137 10.533 20.6062 7.25314C23.7987 3.97326 28.1161 2.02581 32.6879 1.80347C37.2596 1.58113 41.7456 3.10044 45.2414 6.05504L43.9598 7.37404C41.0639 4.96095 37.4078 3.64987 33.6383 3.67273C30.5032 3.67002 27.435 4.57898 24.8074 6.28891L26.0547 7.55802C29.0014 5.75334 32.4951 5.05832 35.9082 5.59777C39.3213 6.13723 42.4303 7.8758 44.6769 10.5013C46.9234 13.1268 48.1604 16.4672 48.1655 19.9226C48.1707 23.378 46.9437 26.7221 44.705 29.3543L43.4203 28.0353C45.1008 26.0075 46.108 23.5067 46.302 20.8803C46.4959 18.2539 45.8669 15.6322 44.5024 13.3797L43.2551 14.6738C44.4701 16.8724 44.8924 19.4219 44.451 21.8948C44.0096 24.3678 42.7315 26.6138 40.8308 28.2564C38.9302 29.8989 36.5226 30.8381 34.0118 30.9165C31.5009 30.9949 29.0395 30.2078 27.04 28.687L28.3185 27.3586C30.0915 28.6444 32.2681 29.2491 34.4502 29.062C36.6324 28.875 38.6743 27.9088 40.2026 26.34C41.7309 24.7713 42.6434 22.7048 42.7733 20.5186C42.9032 18.3323 42.2419 16.1724 40.9101 14.4337L43.4234 11.8549C41.3205 9.30113 38.3019 7.67141 35.0131 7.31421C31.7242 6.95701 28.4261 7.90068 25.8239 9.94344ZM33.6394 27.6915L27.2969 15.5087H39.982L33.6394 27.6915ZM34.0947 24.5951L37.9115 17.3453H30.3247L34.0947 24.5951ZM47.201 7.96179L45.9163 9.28079C47.342 10.9207 48.4242 12.8301 49.0987 14.8957C49.7732 16.9614 50.0264 19.1414 49.8432 21.3067C49.66 23.472 49.0442 25.5785 48.0323 27.5015C47.0203 29.4245 45.6328 31.125 43.9518 32.5021L42.7357 31.2548L41.4509 29.9296C38.8486 31.9711 35.5511 32.9144 32.2627 32.5578C28.9743 32.2012 25.9557 30.5731 23.8514 28.0212L25.0707 26.7739L26.3616 25.4487C25.3331 24.0955 24.7031 22.4819 24.5428 20.7897C24.3825 19.0976 24.6982 17.3944 25.4543 15.8721C26.2104 14.3499 27.3769 13.0692 28.8221 12.1745C30.2673 11.2798 31.9337 10.8068 33.6334 10.8087C35.5389 10.7893 37.3991 11.389 38.9345 12.5175L40.2348 11.1829C38.2336 9.66241 35.7703 8.87633 33.2582 8.95651C30.7461 9.03669 28.338 9.97826 26.4377 11.6233C24.5375 13.2683 23.2608 15.5167 22.8217 17.9914C22.3826 20.4661 22.8078 23.0165 24.0261 25.2148L22.7787 26.5089C21.4124 24.2569 20.7824 21.635 20.9763 19.0081C21.1703 16.3812 22.1786 13.8802 23.8608 11.8533L22.5667 10.5281C20.3244 13.1592 19.0944 16.5039 19.0977 19.9609C19.101 23.4178 20.3375 26.7602 22.5848 29.387C24.8321 32.0138 27.9428 33.7528 31.3576 34.2912C34.7725 34.8297 38.2674 34.1322 41.214 32.3243L42.4613 33.5934C39.5692 35.4686 36.1549 36.3734 32.7138 36.1766C29.2727 35.9798 25.9838 34.6916 23.3244 32.499L22.0397 33.818C25.5348 36.7775 30.0225 38.301 34.5971 38.0808C39.1716 37.8605 43.4923 35.9131 46.6869 32.6315C49.8815 29.3498 51.7122 24.9785 51.8093 20.3998C51.9065 15.821 50.2629 11.376 47.2104 7.96179H47.201ZM77.0039 25.9041H82.6836C83.5855 25.9238 84.4823 25.7632 85.3214 25.4317C86.1604 25.1001 86.9247 24.6044 87.5696 23.9735C88.2145 23.3426 88.7268 22.5893 89.0766 21.7577C89.4264 20.9262 89.6066 20.0331 89.6066 19.131C89.6066 18.2289 89.4264 17.3358 89.0766 16.5043C88.7268 15.6727 88.2145 14.9194 87.5696 14.2885C86.9247 13.6576 86.1604 13.1619 85.3214 12.8303C84.4823 12.4988 83.5855 12.3382 82.6836 12.3579H77.0039V21.6338H81.4945V19.4987H79.1423V14.4931H82.6836C83.8925 14.525 85.0411 15.0277 85.8848 15.894C86.7285 16.7603 87.2007 17.9217 87.2007 19.131C87.2007 20.3403 86.7285 21.5017 85.8848 22.368C85.0411 23.2343 83.8925 23.737 82.6836 23.7689H77.0039V25.9041ZM71.3049 16.4582C71.9642 17.4941 72.2195 18.7363 72.0221 19.9482C71.8248 21.1601 71.1886 22.2571 70.2347 23.0303C69.2808 23.8035 68.0758 24.1989 66.8492 24.1411C65.6227 24.0833 64.4602 23.5764 63.5832 22.717C62.7062 21.8576 62.1759 20.7056 62.0934 19.4805C62.0109 18.2554 62.3818 17.0427 63.1356 16.0734C63.8894 15.104 64.9733 14.4458 66.181 14.224C67.3888 14.0022 68.6359 14.2324 69.6849 14.8706L71.2044 13.309C69.7413 12.2744 67.9422 11.8288 66.1653 12.061C64.3884 12.2932 62.7642 13.1861 61.6161 14.5619C60.468 15.9378 59.8802 17.6956 59.9699 19.4853C60.0595 21.275 60.82 22.9653 62.0998 24.2195C63.3797 25.4737 65.085 26.1999 66.8762 26.2534C68.6674 26.3068 70.413 25.6837 71.7654 24.508C73.1178 23.3324 73.9778 21.6905 74.174 19.9093C74.3703 18.1282 73.8884 16.3384 72.8244 14.8965L71.3049 16.4582ZM95.6491 13.2469C96.7645 12.5671 98.0456 12.2077 99.3519 12.208C100.481 12.2004 101.596 12.4613 102.605 12.9691C103.614 13.4769 104.488 14.2172 105.154 15.1289C105.821 16.0406 106.261 17.0976 106.439 18.2129C106.617 19.3282 106.527 20.4697 106.177 21.5436C105.828 22.6174 105.228 23.5927 104.427 24.3892C103.626 25.1857 102.648 25.7805 101.572 26.1246C100.496 26.4687 99.3541 26.5523 98.2398 26.3685C97.1254 26.1847 96.0707 25.7387 95.1626 25.0673L96.6756 23.5121C97.7081 24.1725 98.9473 24.4303 100.157 24.2366C101.368 24.0428 102.464 23.411 103.239 22.4613C104.014 21.5116 104.412 20.3103 104.359 19.0859C104.306 17.8615 103.804 16.6994 102.95 15.8207C102.095 14.942 100.948 14.408 99.7253 14.3203C98.5029 14.2325 97.2908 14.5972 96.3197 15.3448C95.3486 16.0925 94.6862 17.171 94.4585 18.3752C94.2308 19.5795 94.4537 20.8254 95.0848 21.876L93.5588 23.4473C92.8006 22.3837 92.3501 21.1317 92.2565 19.8289C92.163 18.526 92.4301 17.2226 93.0286 16.0615C93.627 14.9004 94.5337 13.9266 95.6491 13.2469ZM114.971 12.2157C112.612 12.2157 110.795 12.8216 109.722 13.9685C109.355 14.359 109.074 14.8225 108.898 15.3289C108.723 15.8353 108.655 16.3731 108.702 16.9071C108.854 19.2949 111.018 20.8177 115.123 21.443V19.3565C116.849 19.6537 119.31 20.3317 119.4 21.8695C119.426 22.1138 119.4 22.3609 119.322 22.594C119.244 22.8271 119.117 23.0408 118.95 23.2205C118.302 23.9171 116.983 24.2994 115.25 24.2994C113.423 24.2538 111.618 23.8943 109.913 23.2367L109.094 25.1969C111.057 25.9684 113.141 26.3863 115.25 26.4313C117.608 26.4313 119.426 25.8254 120.499 24.6785C120.866 24.288 121.146 23.8244 121.322 23.3181C121.498 22.8117 121.565 22.2739 121.519 21.7399C121.367 19.352 119.203 17.8293 115.097 17.204V19.284C113.372 18.9868 110.911 18.3088 110.821 16.771C110.794 16.5267 110.821 16.2796 110.899 16.0465C110.977 15.8134 111.103 15.5997 111.271 15.42C111.919 14.7234 113.238 14.3411 114.971 14.3411C116.798 14.3867 118.603 14.7462 120.307 15.4038L121.127 13.4598C119.165 12.685 117.08 12.2638 114.971 12.2157Z" fill="#5B619B"/>
</g>
<defs>
<clipPath id="clip0_454_3889">
<rect width="112" height="38" fill="white" transform="translate(14.6016 1.05554)"/>
</clipPath>
</defs>
</svg>
