<svg width="141" height="41" viewBox="0 0 141 41" fill="none" xmlns="http://www.w3.org/2000/svg">
<g clip-path="url(#clip0_454_3923)">
<g clip-path="url(#clip1_454_3923)">
<path d="M23.0383 11.8446H24.6289V13.4352H23.0383V11.8446Z" fill="#5B619B"/>
<path d="M24.6242 11.8446H26.2148V13.4352H24.6242V11.8446Z" fill="#5B619B"/>
<path d="M26.2102 11.8446H27.8008V13.4352H26.2102V11.8446Z" fill="#5B619B"/>
<path d="M27.8078 11.8446H29.3984V13.4352H27.8078V11.8446Z" fill="#5B619B"/>
<path d="M19.8547 13.4305H21.4453V15.0212H19.8547V13.4305Z" fill="#5B619B"/>
<path d="M21.4406 13.4305H23.0312V15.0212H21.4406V13.4305Z" fill="#5B619B"/>
<path d="M23.0383 13.4305H24.6289V15.0212H23.0383V13.4305Z" fill="#5B619B"/>
<path d="M24.6242 13.4305H26.2148V15.0212H24.6242V13.4305Z" fill="#5B619B"/>
<path d="M26.2102 13.4305H27.8008V15.0212H26.2102V13.4305Z" fill="#5B619B"/>
<path d="M27.8078 13.4305H29.3984V15.0212H27.8078V13.4305Z" fill="#5B619B"/>
<path d="M29.3977 13.4305H30.9883V15.0212H29.3977V13.4305Z" fill="#5B619B"/>
<path d="M30.9875 13.4305H32.5781V15.0212H30.9875V13.4305Z" fill="#5B619B"/>
<path d="M18.2648 15.0282H19.8555V16.6188H18.2648V15.0282Z" fill="#5B619B"/>
<path d="M19.8547 15.0282H21.4453V16.6188H19.8547V15.0282Z" fill="#5B619B"/>
<path d="M21.4406 15.0282H23.0312V16.6188H21.4406V15.0282Z" fill="#5B619B"/>
<path d="M23.0383 15.0282H24.6289V16.6188H23.0383V15.0282Z" fill="#5B619B"/>
<path d="M24.6242 15.0282H26.2148V16.6188H24.6242V15.0282Z" fill="#5B619B"/>
<path d="M26.2102 15.0282H27.8008V16.6188H26.2102V15.0282Z" fill="#5B619B"/>
<path d="M27.8078 15.0282H29.3984V16.6188H27.8078V15.0282Z" fill="#5B619B"/>
<path d="M29.3977 15.0282H30.9883V16.6188H29.3977V15.0282Z" fill="#5B619B"/>
<path d="M30.9875 15.0282H32.5781V16.6188H30.9875V15.0282Z" fill="#5B619B"/>
<path d="M32.5813 15.0282H34.1719V16.6188H32.5813V15.0282Z" fill="#5B619B"/>
<path d="M18.2648 16.6141H19.8555V18.2048H18.2648V16.6141Z" fill="#5B619B"/>
<path d="M19.8547 16.6141H21.4453V18.2048H19.8547V16.6141Z" fill="#5B619B"/>
<path d="M21.4406 16.6141H23.0312V18.2048H21.4406V16.6141Z" fill="#5B619B"/>
<path d="M23.0383 16.6141H24.6289V18.2048H23.0383V16.6141Z" fill="#5B619B"/>
<path d="M24.6242 16.6141H26.2148V18.2048H24.6242V16.6141Z" fill="#5B619B"/>
<path d="M26.2102 16.6141H27.8008V18.2048H26.2102V16.6141Z" fill="#5B619B"/>
<path d="M27.8078 16.6141H29.3984V18.2048H27.8078V16.6141Z" fill="#5B619B"/>
<path d="M29.3977 16.6141H30.9883V18.2048H29.3977V16.6141Z" fill="#5B619B"/>
<path d="M30.9875 16.6141H32.5781V18.2048H30.9875V16.6141Z" fill="#5B619B"/>
<path d="M32.5813 16.6141H34.1719V18.2048H32.5813V16.6141Z" fill="#5B619B"/>
<path d="M16.6672 18.204H18.2578V19.7946H16.6672V18.204Z" fill="#5B619B"/>
<path d="M18.2648 18.204H19.8555V19.7946H18.2648V18.204Z" fill="#5B619B"/>
<path d="M19.8547 18.204H21.4453V19.7946H19.8547V18.204Z" fill="#5B619B"/>
<path d="M21.4406 18.204H23.0312V19.7946H21.4406V18.204Z" fill="#5B619B"/>
<path d="M23.0383 18.204H24.6289V19.7946H23.0383V18.204Z" fill="#5B619B"/>
<path d="M24.6242 18.204H26.2148V19.7946H24.6242V18.204Z" fill="#5B619B"/>
<path d="M26.2102 18.204H27.8008V19.7946H26.2102V18.204Z" fill="#5B619B"/>
<path d="M27.8078 18.204H29.3984V19.7946H27.8078V18.204Z" fill="#5B619B"/>
<path d="M29.3977 18.204H30.9883V19.7946H29.3977V18.204Z" fill="#5B619B"/>
<path d="M30.9875 18.204H32.5781V19.7946H30.9875V18.204Z" fill="#5B619B"/>
<path d="M32.5813 18.204H34.1719V19.7946H32.5813V18.204Z" fill="#5B619B"/>
<path d="M34.1672 18.204H35.7578V19.7946H34.1672V18.204Z" fill="#5B619B"/>
<path d="M16.6672 19.7977H18.2578V21.3884H16.6672V19.7977Z" fill="#5B619B"/>
<path d="M18.2648 19.7977H19.8555V21.3884H18.2648V19.7977Z" fill="#5B619B"/>
<path d="M19.8547 19.7977H21.4453V21.3884H19.8547V19.7977Z" fill="#5B619B"/>
<path d="M21.4406 19.7977H23.0312V21.3884H21.4406V19.7977Z" fill="#5B619B"/>
<path d="M23.0383 19.7977H24.6289V21.3884H23.0383V19.7977Z" fill="#5B619B"/>
<path d="M24.6242 19.7977H26.2148V21.3884H24.6242V19.7977Z" fill="#5B619B"/>
<path d="M26.2102 19.7977H27.8008V21.3884H26.2102V19.7977Z" fill="#5B619B"/>
<path d="M27.8078 19.7977H29.3984V21.3884H27.8078V19.7977Z" fill="#5B619B"/>
<path d="M29.3977 19.7977H30.9883V21.3884H29.3977V19.7977Z" fill="#5B619B"/>
<path d="M30.9875 19.7977H32.5781V21.3884H30.9875V19.7977Z" fill="#5B619B"/>
<path d="M32.5813 19.7977H34.1719V21.3884H32.5813V19.7977Z" fill="#5B619B"/>
<path d="M34.1672 19.7977H35.7578V21.3884H34.1672V19.7977Z" fill="#5B619B"/>
<path d="M16.6672 21.3876H18.2578V22.9782H16.6672V21.3876Z" fill="#5B619B"/>
<path d="M18.2648 21.3876H19.8555V22.9782H18.2648V21.3876Z" fill="#5B619B"/>
<path d="M19.8547 21.3876H21.4453V22.9782H19.8547V21.3876Z" fill="#5B619B"/>
<path d="M21.4406 21.3876H23.0312V22.9782H21.4406V21.3876Z" fill="#5B619B"/>
<path d="M23.0383 21.3876H24.6289V22.9782H23.0383V21.3876Z" fill="#5B619B"/>
<path d="M24.6242 21.3876H26.2148V22.9782H24.6242V21.3876Z" fill="#5B619B"/>
<path d="M26.2102 21.3876H27.8008V22.9782H26.2102V21.3876Z" fill="#5B619B"/>
<path d="M27.8078 21.3876H29.3984V22.9782H27.8078V21.3876Z" fill="#5B619B"/>
<path d="M29.3977 21.3876H30.9883V22.9782H29.3977V21.3876Z" fill="#5B619B"/>
<path d="M30.9875 21.3876H32.5781V22.9782H30.9875V21.3876Z" fill="#5B619B"/>
<path d="M32.5813 21.3876H34.1719V22.9782H32.5813V21.3876Z" fill="#5B619B"/>
<path d="M34.1672 21.3876H35.7578V22.9782H34.1672V21.3876Z" fill="#5B619B"/>
<path d="M16.6672 22.9735H18.2578V24.5641H16.6672V22.9735Z" fill="#5B619B"/>
<path d="M18.2648 22.9735H19.8555V24.5641H18.2648V22.9735Z" fill="#5B619B"/>
<path d="M19.8547 22.9735H21.4453V24.5641H19.8547V22.9735Z" fill="#5B619B"/>
<path d="M21.4406 22.9735H23.0312V24.5641H21.4406V22.9735Z" fill="#5B619B"/>
<path d="M23.0383 22.9735H24.6289V24.5641H23.0383V22.9735Z" fill="#5B619B"/>
<path d="M24.6242 22.9735H26.2148V24.5641H24.6242V22.9735Z" fill="#5B619B"/>
<path d="M26.2102 22.9735H27.8008V24.5641H26.2102V22.9735Z" fill="#5B619B"/>
<path d="M27.8078 22.9735H29.3984V24.5641H27.8078V22.9735Z" fill="#5B619B"/>
<path d="M29.3977 22.9735H30.9883V24.5641H29.3977V22.9735Z" fill="#5B619B"/>
<path d="M30.9875 22.9735H32.5781V24.5641H30.9875V22.9735Z" fill="#5B619B"/>
<path d="M32.5813 22.9735H34.1719V24.5641H32.5813V22.9735Z" fill="#5B619B"/>
<path d="M34.1672 22.9735H35.7578V24.5641H34.1672V22.9735Z" fill="#5B619B"/>
<path d="M18.2648 24.5712H19.8555V26.1618H18.2648V24.5712Z" fill="#5B619B"/>
<path d="M19.8547 24.5712H21.4453V26.1618H19.8547V24.5712Z" fill="#5B619B"/>
<path d="M21.4406 24.5712H23.0312V26.1618H21.4406V24.5712Z" fill="#5B619B"/>
<path d="M23.0383 24.5712H24.6289V26.1618H23.0383V24.5712Z" fill="#5B619B"/>
<path d="M24.6242 24.5712H26.2148V26.1618H24.6242V24.5712Z" fill="#5B619B"/>
<path d="M26.2102 24.5712H27.8008V26.1618H26.2102V24.5712Z" fill="#DCDFF5"/>
<path d="M27.8078 24.5712H29.3984V26.1618H27.8078V24.5712Z" fill="#5B619B"/>
<path d="M29.3977 24.5712H30.9883V26.1618H29.3977V24.5712Z" fill="#5B619B"/>
<path d="M30.9875 24.5712H32.5781V26.1618H30.9875V24.5712Z" fill="#5B619B"/>
<path d="M32.5813 24.5712H34.1719V26.1618H32.5813V24.5712Z" fill="#5B619B"/>
<path d="M18.2648 26.1571H19.8555V27.7477H18.2648V26.1571Z" fill="#5B619B"/>
<path d="M19.8547 26.1571H21.4453V27.7477H19.8547V26.1571Z" fill="#5B619B"/>
<path d="M21.4406 26.1571H23.0312V27.7477H21.4406V26.1571Z" fill="#DCDFF5"/>
<path d="M23.0383 26.1571H24.6289V27.7477H23.0383V26.1571Z" fill="#DCDFF5"/>
<path d="M24.6242 26.1571H26.2148V27.7477H24.6242V26.1571Z" fill="#DCDFF5"/>
<path d="M26.2102 26.1571H27.8008V27.7477H26.2102V26.1571Z" fill="#5B619B"/>
<path d="M27.8078 26.1571H29.3984V27.7477H27.8078V26.1571Z" fill="#5B619B"/>
<path d="M29.3977 26.1571H30.9883V27.7477H29.3977V26.1571Z" fill="#5B619B"/>
<path d="M30.9875 26.1571H32.5781V27.7477H30.9875V26.1571Z" fill="#5B619B"/>
<path d="M32.5813 26.1571H34.1719V27.7477H32.5813V26.1571Z" fill="#5B619B"/>
<path d="M19.8547 27.7469H21.4453V29.3376H19.8547V27.7469Z" fill="#5B619B"/>
<path d="M21.4406 27.7469H23.0312V29.3376H21.4406V27.7469Z" fill="#5B619B"/>
<path d="M23.0383 27.7469H24.6289V29.3376H23.0383V27.7469Z" fill="#5B619B"/>
<path d="M24.6242 27.7469H26.2148V29.3376H24.6242V27.7469Z" fill="#5B619B"/>
<path d="M26.2102 27.7469H27.8008V29.3376H26.2102V27.7469Z" fill="#5B619B"/>
<path d="M27.8078 27.7469H29.3984V29.3376H27.8078V27.7469Z" fill="#5B619B"/>
<path d="M29.3977 27.7469H30.9883V29.3376H29.3977V27.7469Z" fill="#5B619B"/>
<path d="M30.9875 27.7469H32.5781V29.3376H30.9875V27.7469Z" fill="#5B619B"/>
<path d="M23.0383 29.3446H24.6289V30.9352H23.0383V29.3446Z" fill="#5B619B"/>
<path d="M24.6242 29.3446H26.2148V30.9352H24.6242V29.3446Z" fill="#5B619B"/>
<path d="M26.2102 29.3446H27.8008V30.9352H26.2102V29.3446Z" fill="#5B619B"/>
<path d="M27.8078 29.3446H29.3984V30.9352H27.8078V29.3446Z" fill="#5B619B"/>
<path d="M23.0383 11.8446H24.6289V13.4352H23.0383V11.8446Z" fill="#5B619B"/>
<path d="M23.0383 11.8446H24.6289V13.4352H23.0383V11.8446Z" fill="#5B619B"/>
<path d="M23.0383 13.4305H24.6289V15.0212H23.0383V13.4305Z" fill="#5B619B"/>
<path d="M23.0383 10.2548H24.6289V11.8454H23.0383V10.2548Z" fill="#5B619B"/>
<path d="M21.4406 8.6571H23.0312V10.2477H21.4406V8.6571Z" fill="#5B619B"/>
<path d="M19.8547 7.07117H21.4453V8.66179H19.8547V7.07117Z" fill="#5B619B"/>
<path d="M24.6242 8.6571H26.2148V10.2477H24.6242V8.6571Z" fill="#5B619B"/>
<path d="M24.6242 10.2548H26.2148V11.8454H24.6242V10.2548Z" fill="#5B619B"/>
<path d="M26.2102 7.07117H27.8008V8.66179H26.2102V7.07117Z" fill="#5B619B"/>
<path d="M21.4406 16.6141H23.0312V18.2048H21.4406V16.6141Z" fill="#A6A6A6"/>
<path d="M29.3977 16.6141H30.9883V18.2048H29.3977V16.6141Z" fill="#A6A6A6"/>
<path d="M21.4406 18.204H23.0312V19.7946H21.4406V18.204Z" fill="#5B619B"/>
<path d="M29.3977 18.204H30.9883V19.7946H29.3977V18.204Z" fill="#5B619B"/>
<path d="M21.4406 19.7977H23.0312V21.3884H21.4406V19.7977Z" fill="#5B619B"/>
<path d="M29.3977 19.7977H30.9883V21.3884H29.3977V19.7977Z" fill="#5B619B"/>
<path d="M32.5813 18.204H34.1719V19.7946H32.5813V18.204Z" fill="#383838"/>
<path d="M30.9875 18.204H32.5781V19.7946H30.9875V18.204Z" fill="#383838"/>
<path d="M21.4406 22.9735H23.0312V21.3829H21.4406V22.9735Z" fill="#5B619B"/>
<path d="M29.3977 22.9735H30.9883V21.3829H29.3977V22.9735Z" fill="#5B619B"/>
<path d="M19.8547 16.6141H21.4453V18.2048H19.8547V16.6141Z" fill="#383838"/>
<path d="M27.8078 16.6141H29.3984V18.2048H27.8078V16.6141Z" fill="#383838"/>
<path d="M19.8547 18.204H21.4453V19.7946H19.8547V18.204Z" fill="#383838"/>
<path d="M27.8078 18.204H29.3984V19.7946H27.8078V18.204Z" fill="#383838"/>
<path d="M19.8547 19.7977H21.4453V21.3884H19.8547V19.7977Z" fill="#383838"/>
<path d="M27.8078 19.7977H29.3984V21.3884H27.8078V19.7977Z" fill="#383838"/>
<path d="M19.8547 21.3876H21.4453V22.9782H19.8547V21.3876Z" fill="#5B619B"/>
<path d="M27.8078 21.3876H29.3984V22.9782H27.8078V21.3876Z" fill="#5B619B"/>
<path d="M32.5813 18.204H34.1719V19.7946H32.5813V18.204Z" fill="#5B619B"/>
<path d="M30.9875 18.204H32.5781V19.7946H30.9875V18.204Z" fill="#5B619B"/>
<path d="M21.4406 21.3876H23.0312V22.9782H21.4406V21.3876Z" fill="#5B619B"/>
<path d="M29.3977 21.3876H30.9883V22.9782H29.3977V21.3876Z" fill="#5B619B"/>
<path d="M21.4406 18.204H23.0312V19.7946H21.4406V18.204Z" fill="#5B619B"/>
<path d="M29.3977 18.204H30.9883V19.7946H29.3977V18.204Z" fill="#5B619B"/>
<path d="M21.4406 19.7977H23.0312V21.3884H21.4406V19.7977Z" fill="#5B619B"/>
<path d="M29.3977 19.7977H30.9883V21.3884H29.3977V19.7977Z" fill="#5B619B"/>
<path d="M21.4406 16.6141H23.0312V18.2048H21.4406V16.6141Z" fill="#5B619B"/>
<path d="M29.3977 16.6141H30.9883V18.2048H29.3977V16.6141Z" fill="#5B619B"/>
<path d="M19.8547 21.3876H21.4453V22.9782H19.8547V21.3876Z" fill="#5B619B"/>
<path d="M27.8078 21.3876H29.3984V22.9782H27.8078V21.3876Z" fill="#5B619B"/>
<path d="M19.8547 18.204H21.4453V19.7946H19.8547V18.204Z" fill="#5B619B"/>
<path d="M27.8078 18.204H29.3984V19.7946H27.8078V18.204Z" fill="#5B619B"/>
<path d="M19.8547 19.7977H21.4453V21.3884H19.8547V19.7977Z" fill="#5B619B"/>
<path d="M27.8078 19.7977H29.3984V21.3884H27.8078V19.7977Z" fill="#5B619B"/>
<path d="M19.8547 16.6141H21.4453V18.2048H19.8547V16.6141Z" fill="#5B619B"/>
<path d="M27.8078 16.6141H29.3984V18.2048H27.8078V16.6141Z" fill="#5B619B"/>
<path d="M18.2648 21.3876H19.8555V22.9782H18.2648V21.3876Z" fill="#5B619B"/>
<path d="M26.2102 21.3876H27.8008V22.9782H26.2102V21.3876Z" fill="#5B619B"/>
<path d="M18.2648 18.204H19.8555V19.7946H18.2648V18.204Z" fill="#5B619B"/>
<path d="M26.2102 18.204H27.8008V19.7946H26.2102V18.204Z" fill="#5B619B"/>
<path d="M18.2648 19.7977H19.8555V21.3884H18.2648V19.7977Z" fill="#5B619B"/>
<path d="M26.2102 19.7977H27.8008V21.3884H26.2102V19.7977Z" fill="#5B619B"/>
<path d="M18.2648 16.6141H19.8555V18.2048H18.2648V16.6141Z" fill="#5B619B"/>
<path d="M26.2102 16.6141H27.8008V18.2048H26.2102V16.6141Z" fill="#5B619B"/>
<path d="M16.6672 21.3876H18.2578V22.9782H16.6672V21.3876Z" fill="#5B619B"/>
<path d="M24.6242 21.3876H26.2148V22.9782H24.6242V21.3876Z" fill="#5B619B"/>
<path d="M16.6672 18.204H18.2578V19.7946H16.6672V18.204Z" fill="#5B619B"/>
<path d="M24.6242 18.204H26.2148V19.7946H24.6242V18.204Z" fill="#5B619B"/>
<path d="M16.6672 19.7977H18.2578V21.3884H16.6672V19.7977Z" fill="#5B619B"/>
<path d="M24.6242 19.7977H26.2148V21.3884H24.6242V19.7977Z" fill="#5B619B"/>
<path d="M16.6672 16.6141H18.2578V18.2048H16.6672V16.6141Z" fill="#5B619B"/>
<path d="M24.6242 16.6141H26.2148V18.2048H24.6242V16.6141Z" fill="#5B619B"/>
<path d="M32.5813 18.204H34.1719V19.7946H32.5813V18.204Z" fill="#5B619B"/>
<path d="M32.5813 18.204H34.1719V19.7946H32.5813V18.204Z" fill="#5B619B"/>
<path d="M34.1672 18.204H35.7578V19.7946H34.1672V18.204Z" fill="#5B619B"/>
<path d="M30.9875 18.204H32.5781V19.7946H30.9875V18.204Z" fill="#5B619B"/>
<path d="M19.8547 18.204H21.4453V19.7946H19.8547V18.204Z" fill="#5B619B"/>
<path d="M19.8547 18.204H21.4453V19.7946H19.8547V18.204Z" fill="#DFE2F7"/>
<path d="M27.8078 18.204H29.3984V19.7946H27.8078V18.204Z" fill="#5B619B"/>
<path d="M27.8078 18.204H29.3984V19.7946H27.8078V18.204Z" fill="#DFE2F7"/>
<path d="M18.2648 18.204H19.8555V19.7946H18.2648V18.204Z" fill="#5B619B"/>
<path d="M18.2648 18.204H19.8555V19.7946H18.2648V18.204Z" fill="#5B619B"/>
<path d="M26.2102 18.204H27.8008V19.7946H26.2102V18.204Z" fill="#5B619B"/>
<path d="M26.2102 18.204H27.8008V19.7946H26.2102V18.204Z" fill="#5B619B"/>
<path d="M21.4406 19.7977H23.0312V21.3884H21.4406V19.7977Z" fill="#5B619B"/>
<path d="M29.3977 19.7977H30.9883V21.3884H29.3977V19.7977Z" fill="#5B619B"/>
<path d="M21.4406 18.204H23.0312V19.7946H21.4406V18.204Z" fill="#5B619B"/>
<path d="M29.3977 18.204H30.9883V19.7946H29.3977V18.204Z" fill="#5B619B"/>
<path d="M19.8547 19.7977H21.4453V21.3884H19.8547V19.7977Z" fill="#5B619B"/>
<path d="M19.8547 19.7977H21.4453V21.3884H19.8547V19.7977Z" fill="#DFE2F7"/>
<path d="M27.8078 19.7977H29.3984V21.3884H27.8078V19.7977Z" fill="#5B619B"/>
<path d="M27.8078 19.7977H29.3984V21.3884H27.8078V19.7977Z" fill="#DFE2F7"/>
<path d="M18.2648 19.7977H19.8555V21.3884H18.2648V19.7977Z" fill="#5B619B"/>
<path d="M18.2648 19.7977H19.8555V21.3884H18.2648V19.7977Z" fill="#5B619B"/>
<path d="M26.2102 19.7977H27.8008V21.3884H26.2102V19.7977Z" fill="#5B619B"/>
<path d="M26.2102 19.7977H27.8008V21.3884H26.2102V19.7977Z" fill="#5B619B"/>
<path d="M21.4406 21.3876H23.0312V22.9782H21.4406V21.3876Z" fill="#5B619B"/>
<path d="M29.3977 21.3876H30.9883V22.9782H29.3977V21.3876Z" fill="#5B619B"/>
<path d="M19.8547 21.3876H21.4453V22.9782H19.8547V21.3876Z" fill="#5B619B"/>
<path d="M19.8547 21.3876H21.4453V22.9782H19.8547V21.3876Z" fill="#5B619B"/>
<path d="M27.8078 21.3876H29.3984V22.9782H27.8078V21.3876Z" fill="#5B619B"/>
<path d="M27.8078 21.3876H29.3984V22.9782H27.8078V21.3876Z" fill="#5B619B"/>
<path d="M18.2648 21.3876H19.8555V22.9782H18.2648V21.3876Z" fill="#5B619B"/>
<path d="M18.2648 21.3876H19.8555V22.9782H18.2648V21.3876Z" fill="#5B619B"/>
<path d="M26.2102 21.3876H27.8008V22.9782H26.2102V21.3876Z" fill="#5B619B"/>
<path d="M26.2102 21.3876H27.8008V22.9782H26.2102V21.3876Z" fill="#5B619B"/>
<path d="M23.0383 18.204H24.6289V19.7946H23.0383V18.204Z" fill="#5B619B"/>
<path d="M21.4406 16.6141H23.0312V18.2048H21.4406V16.6141Z" fill="#5B619B"/>
<path d="M29.3977 16.6141H30.9883V18.2048H29.3977V16.6141Z" fill="#5B619B"/>
<path d="M19.8547 16.6141H21.4453V18.2048H19.8547V16.6141Z" fill="#5B619B"/>
<path d="M27.8078 16.6141H29.3984V18.2048H27.8078V16.6141Z" fill="#5B619B"/>
<path d="M18.2648 16.6141H19.8555V18.2048H18.2648V16.6141Z" fill="#5B619B"/>
<path d="M26.2102 16.6141H27.8008V18.2048H26.2102V16.6141Z" fill="#5B619B"/>
<path d="M16.6672 16.6141H18.2578V18.2048H16.6672V16.6141Z" fill="#5B619B"/>
<path d="M24.6242 16.6141H26.2148V18.2048H24.6242V16.6141Z" fill="#5B619B"/>
<path d="M16.6672 18.204H18.2578V19.7946H16.6672V18.204Z" fill="#5B619B"/>
<path d="M24.6242 18.204H26.2148V19.7946H24.6242V18.204Z" fill="#5B619B"/>
<path d="M16.6672 19.7977H18.2578V21.3884H16.6672V19.7977Z" fill="#5B619B"/>
<path d="M24.6242 19.7977H26.2148V21.3884H24.6242V19.7977Z" fill="#5B619B"/>
<path d="M16.6672 21.3876H18.2578V22.9782H16.6672V21.3876Z" fill="#5B619B"/>
<path d="M24.6242 21.3876H26.2148V22.9782H24.6242V21.3876Z" fill="#5B619B"/>
<path d="M34.1672 19.7977H35.7578V21.3884H34.1672V19.7977Z" fill="#5B619B"/>
<path d="M55.6571 19.287C55.6571 19.9907 55.5356 20.6357 55.2927 21.2221C55.0498 21.8002 54.7105 22.2987 54.2748 22.7175C53.8476 23.128 53.3365 23.4463 52.7418 23.6725C52.1471 23.8987 51.5019 24.0118 50.8066 24.0118C50.1114 24.0118 49.4662 23.8987 48.8715 23.6725C48.285 23.4463 47.7741 23.128 47.3384 22.7175C46.9112 22.2987 46.5761 21.8002 46.3332 21.2221C46.0903 20.6357 45.9688 19.9907 45.9688 19.287C45.9688 18.5748 46.0903 17.934 46.3332 17.3644C46.5761 16.7863 46.9112 16.2963 47.3384 15.8942C47.7741 15.4921 48.285 15.1821 48.8715 14.9643C49.4662 14.7465 50.1114 14.6376 50.8066 14.6376C51.5019 14.6376 52.1471 14.7465 52.7418 14.9643C53.3365 15.1821 53.8476 15.4921 54.2748 15.8942C54.7105 16.2963 55.0498 16.7863 55.2927 17.3644C55.5356 17.934 55.6571 18.5748 55.6571 19.287ZM53.3575 19.287C53.3575 18.9016 53.2947 18.5414 53.169 18.2063C53.0434 17.8712 52.8675 17.5864 52.6413 17.3518C52.4235 17.1089 52.1553 16.9204 51.837 16.7863C51.527 16.644 51.1836 16.5727 50.8066 16.5727C50.4297 16.5727 50.0862 16.644 49.7762 16.7863C49.4662 16.9204 49.1982 17.1089 48.972 17.3518C48.7458 17.5864 48.5699 17.8712 48.4442 18.2063C48.327 18.5414 48.2683 18.9016 48.2683 19.287C48.2683 19.6891 48.3311 20.0619 48.4568 20.4053C48.5825 20.7405 48.7542 21.0295 48.972 21.2724C49.1982 21.5153 49.4662 21.7081 49.7762 21.8504C50.0862 21.9845 50.4297 22.0515 50.8066 22.0515C51.1836 22.0515 51.527 21.9845 51.837 21.8504C52.1471 21.7081 52.4151 21.5153 52.6413 21.2724C52.8675 21.0295 53.0434 20.7405 53.169 20.4053C53.2947 20.0619 53.3575 19.6891 53.3575 19.287ZM61.0175 19.199C60.9254 19.1739 60.8333 19.1572 60.741 19.1487C60.6574 19.1403 60.5735 19.1362 60.4897 19.1362C60.2133 19.1362 59.9788 19.1864 59.786 19.287C59.6018 19.3875 59.451 19.509 59.3337 19.6514C59.2249 19.7937 59.1452 19.9488 59.0949 20.1163C59.0446 20.2838 59.0195 20.4305 59.0195 20.5561V23.773H56.9587V17.5152H58.9441V18.4199H58.9692C59.1285 18.1016 59.3547 17.8419 59.6478 17.6408C59.9411 17.4398 60.2804 17.3393 60.6656 17.3393C60.7495 17.3393 60.829 17.3434 60.9044 17.3518C60.9882 17.3602 61.0552 17.3728 61.1055 17.3895L61.0175 19.199ZM65.439 21.0462H65.1751C64.9489 21.0462 64.7186 21.0588 64.4839 21.0839C64.2578 21.1006 64.0526 21.1383 63.8682 21.197C63.6923 21.2557 63.5458 21.3436 63.4284 21.4609C63.3112 21.5698 63.2525 21.7163 63.2525 21.9007C63.2525 22.0179 63.2776 22.1184 63.3279 22.2023C63.3866 22.2861 63.4578 22.3531 63.5415 22.4033C63.6253 22.4536 63.7217 22.4913 63.8305 22.5164C63.9395 22.5331 64.0441 22.5415 64.1447 22.5415C64.5636 22.5415 64.8819 22.4285 65.0997 22.2023C65.3259 21.9677 65.439 21.6535 65.439 21.2598V21.0462ZM61.6566 18.3697C62.0253 18.0178 62.4526 17.7539 62.9383 17.578C63.4327 17.4021 63.9353 17.3141 64.4462 17.3141C64.974 17.3141 65.4181 17.3811 65.7782 17.5152C66.1469 17.6408 66.4442 17.8419 66.6704 18.1183C66.8966 18.3864 67.06 18.7299 67.1605 19.1487C67.2694 19.5593 67.3238 20.0494 67.3238 20.619V23.773H65.439V23.107H65.4013C65.2422 23.3668 64.9991 23.5678 64.6724 23.7102C64.3541 23.8525 64.0064 23.9238 63.6295 23.9238C63.3781 23.9238 63.1185 23.8902 62.8504 23.8233C62.5823 23.7563 62.3352 23.6473 62.109 23.4966C61.8912 23.3458 61.7112 23.1447 61.5686 22.8934C61.4263 22.6421 61.355 22.3321 61.355 21.9635C61.355 21.5111 61.4765 21.1467 61.7194 20.8703C61.9708 20.5938 62.2892 20.3802 62.6744 20.2294C63.0683 20.0786 63.5038 19.9781 63.9813 19.9278C64.4588 19.8776 64.9237 19.8524 65.3761 19.8524V19.7519C65.3761 19.4419 65.2673 19.2157 65.0494 19.0733C64.8317 18.9226 64.5636 18.8472 64.2452 18.8472C63.952 18.8472 63.6672 18.91 63.3907 19.0357C63.1227 19.1613 62.8924 19.3121 62.6996 19.488L61.6566 18.3697ZM72.971 23.773V20.3551C72.971 20.1792 72.9543 20.0117 72.9208 19.8524C72.8956 19.6932 72.8497 19.555 72.7826 19.4378C72.7156 19.3121 72.6192 19.2157 72.4935 19.1487C72.3763 19.0733 72.2255 19.0357 72.0412 19.0357C71.857 19.0357 71.6936 19.0733 71.5511 19.1487C71.4172 19.2157 71.3041 19.3121 71.2118 19.4378C71.1197 19.5634 71.0484 19.7101 70.9982 19.8776C70.9564 20.0368 70.9354 20.2043 70.9354 20.3802V23.773H68.862V17.5152H70.86V18.3822H70.8851C70.9605 18.2481 71.0569 18.1183 71.1741 17.9927C71.2998 17.8586 71.4423 17.7455 71.6014 17.6534C71.769 17.5613 71.9491 17.4859 72.1417 17.4272C72.3345 17.3685 72.5397 17.3393 72.7574 17.3393C73.1764 17.3393 73.5324 17.4146 73.8255 17.5654C74.1188 17.7162 74.3533 17.9131 74.5292 18.156C74.7136 18.3907 74.8434 18.6628 74.9188 18.9728C75.0026 19.2828 75.0444 19.5927 75.0444 19.9027V23.773H72.971ZM83.2401 23.1824C83.2401 23.794 83.1522 24.3259 82.9762 24.7783C82.8003 25.2307 82.5531 25.6035 82.2348 25.8967C81.9166 26.1982 81.527 26.4203 81.0662 26.5626C80.6138 26.7134 80.1112 26.7888 79.5583 26.7888C79.0054 26.7888 78.4358 26.705 77.8493 26.5375C77.2713 26.37 76.7687 26.127 76.3414 25.8087L77.3718 24.3385C77.6734 24.6065 78.0043 24.8034 78.3645 24.9291C78.7331 25.0632 79.0934 25.1301 79.4452 25.1301C80.0484 25.1301 80.4923 24.9709 80.7772 24.6526C81.0703 24.3343 81.217 23.9112 81.217 23.3835V23.0065H81.1793C80.9867 23.2578 80.7269 23.4589 80.4002 23.6097C80.0735 23.7604 79.7007 23.8358 79.2818 23.8358C78.8043 23.8358 78.3812 23.752 78.0127 23.5845C77.6441 23.4086 77.33 23.174 77.0702 22.8808C76.8189 22.5877 76.6263 22.2484 76.4922 21.863C76.3581 21.4693 76.2911 21.0546 76.2911 20.619C76.2911 20.1833 76.3581 19.7686 76.4922 19.3749C76.6263 18.9813 76.8189 18.6335 77.0702 18.332C77.33 18.0304 77.6441 17.7916 78.0127 17.6157C78.3812 17.4313 78.8002 17.3393 79.2693 17.3393C79.663 17.3393 80.0399 17.4188 80.4002 17.578C80.7605 17.7372 81.0495 17.9842 81.2673 18.3194H81.2924V17.5152H83.2401V23.1824ZM81.2798 20.6064C81.2798 20.3969 81.2421 20.1959 81.1667 20.0032C81.0998 19.8106 80.9992 19.643 80.8652 19.5006C80.7311 19.3498 80.572 19.2326 80.3876 19.1487C80.2033 19.0649 79.994 19.0231 79.7593 19.0231C79.5247 19.0231 79.3154 19.0649 79.1311 19.1487C78.9551 19.2326 78.8043 19.3457 78.6787 19.488C78.553 19.6304 78.4566 19.798 78.3897 19.9907C78.3227 20.1833 78.2891 20.3886 78.2891 20.6064C78.2891 20.8159 78.3227 21.0169 78.3897 21.2096C78.4566 21.4022 78.553 21.574 78.6787 21.7248C78.8043 21.8671 78.9551 21.9845 79.1311 22.0766C79.3154 22.1604 79.5247 22.2023 79.7593 22.2023C79.994 22.2023 80.2033 22.1604 80.3876 22.0766C80.5803 21.9845 80.7395 21.8671 80.8652 21.7248C80.9992 21.5824 81.0998 21.4147 81.1667 21.2221C81.2421 21.0295 81.2798 20.8241 81.2798 20.6064ZM89.1863 19.9278C89.1863 19.6011 89.0817 19.3205 88.8722 19.0859C88.6711 18.8513 88.3654 18.7341 87.9549 18.7341C87.7538 18.7341 87.5695 18.7676 87.402 18.8346C87.2345 18.8933 87.0878 18.977 86.9622 19.0859C86.8365 19.1949 86.736 19.3247 86.6606 19.4755C86.5852 19.6178 86.5434 19.7686 86.5349 19.9278H89.1863ZM91.0838 20.7195C91.0838 20.8033 91.0838 20.887 91.0838 20.9708C91.0838 21.0546 91.0797 21.1342 91.0712 21.2096H86.5349C86.5516 21.3855 86.6019 21.5447 86.6857 21.6871C86.7778 21.8294 86.8909 21.9551 87.025 22.064C87.1674 22.1646 87.3224 22.2441 87.4899 22.3028C87.6659 22.3615 87.8459 22.3908 88.0303 22.3908C88.357 22.3908 88.6334 22.3321 88.8596 22.2148C89.0858 22.0892 89.2702 21.93 89.4125 21.7373L90.845 22.6421C90.5519 23.0693 90.1624 23.4002 89.6764 23.6348C89.1989 23.861 88.6419 23.9741 88.0051 23.9741C87.5361 23.9741 87.092 23.9028 86.6732 23.7604C86.2543 23.6097 85.8856 23.396 85.5674 23.1196C85.2573 22.8347 85.0103 22.4871 84.826 22.0766C84.65 21.6661 84.5621 21.197 84.5621 20.6692C84.5621 20.1582 84.65 19.6975 84.826 19.287C85.0019 18.8682 85.2406 18.5163 85.5422 18.2314C85.8438 17.9383 86.1998 17.7121 86.6103 17.5529C87.0209 17.3936 87.4648 17.3141 87.9423 17.3141C88.4031 17.3141 88.8261 17.3936 89.2115 17.5529C89.5969 17.7037 89.9277 17.9257 90.2042 18.2189C90.4806 18.512 90.6943 18.8682 90.845 19.287C91.0043 19.7058 91.0838 20.1833 91.0838 20.7195ZM103.923 19.2995C103.923 20.0786 103.776 20.753 103.483 21.3227C103.198 21.884 102.817 22.3489 102.339 22.7175C101.87 23.0777 101.338 23.3458 100.743 23.5217C100.148 23.6892 99.5453 23.773 98.9339 23.773H95.6164V14.8763H98.8333C99.4616 14.8763 100.081 14.9517 100.693 15.1025C101.305 15.2449 101.849 15.4879 102.327 15.8313C102.804 16.1665 103.189 16.6189 103.483 17.1885C103.776 17.7581 103.923 18.4618 103.923 19.2995ZM101.686 19.2995C101.686 18.7969 101.602 18.3822 101.434 18.0555C101.275 17.7204 101.057 17.4565 100.781 17.2639C100.513 17.0628 100.203 16.9204 99.8512 16.8366C99.5076 16.7528 99.1516 16.711 98.7831 16.711H97.715V21.9133H98.7328C99.1181 21.9133 99.4868 21.8714 99.8386 21.7876C100.199 21.6955 100.513 21.5488 100.781 21.3478C101.057 21.1467 101.275 20.8787 101.434 20.5436C101.602 20.2084 101.686 19.7937 101.686 19.2995ZM111.073 23.773L110.381 22.0263H106.938L106.285 23.773H103.948L107.68 14.8763H109.766L113.46 23.773H111.073ZM108.685 17.2513L107.554 20.3048H109.791L108.685 17.2513ZM123.248 19.287C123.248 19.9907 123.127 20.6357 122.884 21.2221C122.641 21.8002 122.301 22.2987 121.866 22.7175C121.439 23.128 120.928 23.4463 120.333 23.6725C119.738 23.8987 119.093 24.0118 118.398 24.0118C117.702 24.0118 117.057 23.8987 116.463 23.6725C115.876 23.4463 115.365 23.128 114.929 22.7175C114.502 22.2987 114.167 21.8002 113.924 21.2221C113.681 20.6357 113.56 19.9907 113.56 19.287C113.56 18.5748 113.681 17.934 113.924 17.3644C114.167 16.7863 114.502 16.2963 114.929 15.8942C115.365 15.4921 115.876 15.1821 116.463 14.9643C117.057 14.7465 117.702 14.6376 118.398 14.6376C119.093 14.6376 119.738 14.7465 120.333 14.9643C120.928 15.1821 121.439 15.4921 121.866 15.8942C122.301 16.2963 122.641 16.7863 122.884 17.3644C123.127 17.934 123.248 18.5748 123.248 19.287ZM120.949 19.287C120.949 18.9016 120.886 18.5414 120.76 18.2063C120.634 17.8712 120.459 17.5864 120.232 17.3518C120.014 17.1089 119.746 16.9204 119.428 16.7863C119.118 16.644 118.775 16.5727 118.398 16.5727C118.021 16.5727 117.677 16.644 117.367 16.7863C117.057 16.9204 116.789 17.1089 116.563 17.3518C116.337 17.5864 116.161 17.8712 116.035 18.2063C115.918 18.5414 115.859 18.9016 115.859 19.287C115.859 19.6891 115.922 20.0619 116.048 20.4053C116.174 20.7405 116.345 21.0295 116.563 21.2724C116.789 21.5153 117.057 21.7081 117.367 21.8504C117.677 21.9845 118.021 22.0515 118.398 22.0515C118.775 22.0515 119.118 21.9845 119.428 21.8504C119.738 21.7081 120.006 21.5153 120.232 21.2724C120.459 21.0295 120.634 20.7405 120.76 20.4053C120.886 20.0619 120.949 19.6891 120.949 19.287Z" fill="#5B619B"/>
</g>
</g>
<defs>
<clipPath id="clip0_454_3923">
<rect width="140" height="40" fill="white" transform="translate(0.25 0.055542)"/>
</clipPath>
<clipPath id="clip1_454_3923">
<rect width="112" height="38" fill="white" transform="translate(14.25 0.000854492)"/>
</clipPath>
</defs>
</svg>
