<svg width="24" height="24" viewBox="0 0 24 24" fill="none" xmlns="http://www.w3.org/2000/svg">
<path fill-rule="evenodd" clip-rule="evenodd" d="M6.67358 5.51023L7.96144 6.83829C9.30482 5.78371 11.0075 5.29654 12.7054 5.48095C14.4033 5.66535 15.9616 6.5067 17.0473 7.82509L15.7498 9.15637C16.4373 10.054 16.7787 11.1691 16.7117 12.2977C16.6446 13.4264 16.1735 14.4932 15.3845 15.303C14.5955 16.1129 13.5414 16.6117 12.4148 16.7083C11.2883 16.8048 10.1646 16.4927 9.2493 15.8289L8.58927 16.5147C9.62148 17.2998 10.8922 17.7061 12.1885 17.6657C13.4847 17.6252 14.7276 17.1403 15.7088 16.2923C16.69 15.4444 17.3499 14.2849 17.5778 13.0082C17.8056 11.7315 17.5876 10.4154 16.9604 9.28032L17.6043 8.61227C18.3087 9.77514 18.6334 11.1286 18.5333 12.4844C18.4332 13.8403 17.9133 15.1314 17.0457 16.1782L17.7089 16.8591C18.8647 15.5003 19.4981 13.7739 19.4954 11.99C19.4927 10.2062 18.8542 8.48169 17.6944 7.12628C16.5346 5.77087 14.9296 4.87333 13.1675 4.59484C11.4055 4.31635 9.60185 4.67515 8.08057 5.60682L7.43664 4.95164C8.79319 4.06889 10.3772 3.59964 11.9957 3.60104C13.9417 3.58923 15.8291 4.26608 17.3242 5.51184L17.9858 4.8309C16.1811 3.30559 13.8652 2.52125 11.505 2.63603C9.1448 2.75082 6.91592 3.75619 5.26776 5.44942C3.6196 7.14266 2.67476 9.39782 2.62376 11.7602C2.57276 14.1225 3.41938 16.4164 4.99293 18.1792L5.65617 17.4982C4.91969 16.6517 4.3607 15.6659 4.01237 14.5993C3.66403 13.5327 3.53343 12.407 3.62831 11.289C3.7232 10.1709 4.04164 9.08335 4.56474 8.0907C5.08785 7.09805 5.80497 6.22054 6.67358 5.51023ZM8.72203 9.71118L11.9964 16.0006L15.2708 9.71118H8.72203ZM14.2019 10.6593L12.2314 14.4021L10.2852 10.6593H14.2019ZM18.3346 6.49613L18.9979 5.8152H19.0027C20.5786 7.57776 21.4271 9.87254 21.3769 12.2363C21.3268 14.6001 20.3817 16.8568 18.7325 18.5509C17.0832 20.2451 14.8527 21.2504 12.491 21.3641C10.1294 21.4778 7.81258 20.6913 6.00823 19.1635L6.67148 18.4825C8.04439 19.6145 9.7423 20.2795 11.5188 20.3811C13.2953 20.4827 15.0579 20.0156 16.551 19.0475L15.907 18.3924C14.3858 19.3257 12.5816 19.6857 10.8187 19.4078C9.05574 19.1298 7.44981 18.2321 6.28962 16.876C5.12943 15.5199 4.49109 13.7944 4.48938 12.0097C4.48767 10.2251 5.1227 8.49836 6.28029 7.14004L6.94837 7.8242C6.07991 8.87058 5.55938 10.1617 5.45925 11.5178C5.35913 12.874 5.68439 14.2276 6.38976 15.3901L7.03369 14.7221C6.40476 13.5872 6.18523 12.2705 6.41192 10.993C6.63861 9.71544 7.29773 8.55469 8.27873 7.70545C9.25973 6.8562 10.5029 6.37012 11.7998 6.32872C13.0967 6.28733 14.3684 6.69314 15.4016 7.47809L14.7303 8.16708C13.9376 7.58448 12.9772 7.27492 11.9936 7.28492C11.1161 7.28392 10.2557 7.52814 9.50965 7.99001C8.76356 8.45188 8.16138 9.11304 7.77103 9.89891C7.38068 10.6848 7.21769 11.5641 7.30046 12.4376C7.38323 13.3112 7.70845 14.1442 8.23945 14.8428L7.57298 15.527L6.94354 16.1709C8.02988 17.4883 9.58827 18.3288 11.2859 18.5129C12.9836 18.697 14.6859 18.21 16.0294 17.1561L16.6926 17.8402L17.3205 18.4841C18.1883 17.7732 18.9046 16.8954 19.427 15.9026C19.9495 14.9098 20.2674 13.8224 20.3619 12.7045C20.4565 11.5867 20.3258 10.4613 19.9776 9.39485C19.6294 8.32844 19.0707 7.34275 18.3346 6.49613Z" fill="white"/>
</svg>
