<svg width="16" height="16" viewBox="0 0 16 16" fill="none" xmlns="http://www.w3.org/2000/svg">
<path fill-rule="evenodd" clip-rule="evenodd" d="M4.28769 11.7123C5.27226 12.6969 6.60761 13.25 8 13.25C9.39239 13.25 10.7277 12.6969 11.7123 11.7123C12.6969 10.7277 13.25 9.39239 13.25 8C13.25 6.60761 12.6969 5.27226 11.7123 4.28769C10.7277 3.30312 9.39239 2.75 8 2.75C6.60761 2.75 5.27226 3.30312 4.28769 4.28769C3.30312 5.27226 2.75 6.60761 2.75 8C2.75 9.39239 3.30312 10.7277 4.28769 11.7123ZM12.2426 12.2426C11.1174 13.3679 9.5913 14 8 14C6.4087 14 4.88258 13.3679 3.75736 12.2426C2.63214 11.1174 2 9.5913 2 8C2 6.4087 2.63214 4.88258 3.75736 3.75736C4.88258 2.63214 6.4087 2 8 2C9.5913 2 11.1174 2.63214 12.2426 3.75736C13.3679 4.88258 14 6.4087 14 8C14 9.5913 13.3679 11.1174 12.2426 12.2426ZM5.9529 6.41054C5.94423 6.3879 5.94029 6.36372 5.94132 6.3395C6.01257 5.0675 7.05357 4.625 8.00382 4.625C9.05157 4.625 10.0086 5.1725 10.0086 6.30575C10.0086 7.115 9.53232 7.5005 9.07557 7.84775C8.52282 8.267 8.31807 8.42375 8.31807 8.96225V9.041C8.31807 9.09073 8.29832 9.13842 8.26315 9.17358C8.22799 9.20875 8.1803 9.2285 8.13057 9.2285H7.52232C7.47311 9.22851 7.42587 9.20916 7.39079 9.17465C7.35571 9.14013 7.33561 9.09321 7.33482 9.044L7.33257 8.88125C7.30407 8.186 7.70382 7.75775 8.20857 7.391C8.65182 7.058 8.93232 6.839 8.93232 6.36275C8.93232 5.744 8.46132 5.48675 7.94682 5.48675C7.34532 5.48675 7.00782 5.84525 6.94032 6.33725C6.92682 6.44 6.84432 6.52475 6.74082 6.52475H6.12207C6.09783 6.52518 6.07376 6.52065 6.05134 6.51143C6.02892 6.50222 6.00862 6.48851 5.99169 6.47116C5.97476 6.45381 5.96156 6.43318 5.9529 6.41054ZM7.86657 11.357C7.42782 11.357 7.10907 11.0615 7.10907 10.6617C7.10907 10.2478 7.42782 9.95675 7.86582 9.95675C8.32257 9.95675 8.63757 10.2478 8.63757 10.6617C8.63757 11.0615 8.32332 11.357 7.86657 11.357Z" fill="white"/>
</svg>
