<svg width="24" height="24" viewBox="0 0 24 24" fill="none" xmlns="http://www.w3.org/2000/svg">
<path d="M9.40375 4.9463C9.16819 4.91264 9.15698 4.90143 9.26915 4.89021C9.48227 4.85656 9.97583 4.90143 10.3236 4.97995C11.1312 5.17064 11.8603 5.66419 12.6343 6.52791L12.8362 6.76347L13.1278 6.7186C14.3729 6.51669 15.6517 6.67373 16.7173 7.16729C17.009 7.30189 17.4689 7.5711 17.5249 7.63841C17.5474 7.66084 17.581 7.80666 17.6035 7.95248C17.682 8.47969 17.6483 8.87229 17.4801 9.17515C17.3903 9.34341 17.3903 9.38828 17.4464 9.5341C17.4913 9.64627 17.6259 9.72479 17.7493 9.72479C18.0185 9.72479 18.2989 9.29854 18.4335 8.70403L18.4896 8.46847L18.5906 8.58064C19.1626 9.22002 19.6113 10.1062 19.6786 10.7343L19.7011 10.9026L19.6001 10.7568C19.4319 10.4988 19.2748 10.3305 19.0617 10.1847C18.6803 9.9267 18.2765 9.84818 17.2109 9.79209C16.2462 9.73601 15.6966 9.65749 15.1581 9.47801C14.2383 9.17515 13.7672 8.78255 12.6792 7.33554C12.1968 6.69617 11.894 6.34844 11.5911 6.05679C10.9293 5.41742 10.2675 5.0809 9.40375 4.9463Z" fill="white"/>
<path d="M17.7606 6.37118C17.783 5.94493 17.8391 5.66451 17.9625 5.40651C18.0073 5.30556 18.0522 5.21582 18.0634 5.21582C18.0746 5.21582 18.0522 5.29434 18.0186 5.38408C17.9288 5.63085 17.9176 5.97858 17.9737 6.37118C18.0522 6.87595 18.0859 6.94326 18.6243 7.4929C18.8711 7.75089 19.1627 8.07619 19.2749 8.21079L19.4656 8.45757L19.2749 8.27809C19.0393 8.05375 18.5009 7.6275 18.3775 7.57142C18.299 7.52655 18.2878 7.52655 18.2317 7.58263C18.1868 7.6275 18.1756 7.6948 18.1756 8.0201C18.1644 8.52487 18.0971 8.83895 17.9288 9.16425C17.8391 9.3325 17.8279 9.29885 17.9064 9.10816C17.9625 8.96234 17.9737 8.89504 17.9737 8.4127C17.9737 7.43681 17.8615 7.20125 17.1773 6.80865C17.009 6.7077 16.7174 6.56187 16.5491 6.48336C16.3696 6.40484 16.235 6.33753 16.2463 6.33753C16.2687 6.3151 16.9305 6.50579 17.1885 6.61796C17.5811 6.775 17.6484 6.78622 17.6933 6.775C17.7269 6.74135 17.7494 6.65161 17.7606 6.37118Z" fill="white"/>
<path d="M9.86347 8.04275C9.39236 7.39216 9.08949 6.38261 9.1568 5.63107L9.17923 5.39551L9.2914 5.41794C9.49331 5.45159 9.84104 5.5862 10.0093 5.68715C10.458 5.95636 10.6599 6.32653 10.8506 7.24633C10.9067 7.51554 10.9852 7.82962 11.0188 7.93058C11.0749 8.09883 11.288 8.49143 11.4675 8.73821C11.5909 8.91768 11.5124 9.00742 11.232 8.98499C10.8057 8.94012 10.2336 8.54752 9.86347 8.04275Z" fill="white"/>
<path d="M17.1883 12.9223C14.9673 12.0249 14.1821 11.251 14.1821 9.93855C14.1821 9.74786 14.1933 9.59082 14.1933 9.59082C14.2046 9.59082 14.2831 9.65812 14.384 9.73664C14.8327 10.0956 15.3375 10.2526 16.7396 10.4545C17.5585 10.5779 18.0296 10.6677 18.4559 10.8135C19.8131 11.2622 20.6544 12.182 20.8563 13.4271C20.9124 13.786 20.8788 14.4703 20.789 14.8292C20.7105 15.1096 20.4862 15.6256 20.4301 15.6368C20.4188 15.6368 20.3964 15.5808 20.3964 15.491C20.374 15.0199 20.1384 14.5712 19.7458 14.2235C19.2747 13.8197 18.669 13.5168 17.1883 12.9223Z" fill="white"/>
<path d="M15.6179 13.2927C15.5955 13.1244 15.5394 12.9113 15.5057 12.8216L15.4497 12.6533L15.5506 12.7767C15.6964 12.945 15.8086 13.1469 15.9096 13.4273C15.9881 13.6404 15.9881 13.7077 15.9881 14.0555C15.9881 14.392 15.9769 14.4705 15.9096 14.6612C15.7974 14.964 15.6628 15.1772 15.4384 15.4127C15.0346 15.8278 14.5074 16.0521 13.7559 16.1531C13.6213 16.1643 13.2399 16.1979 12.9034 16.2204C12.0621 16.2652 11.5012 16.355 10.9965 16.5344C10.9292 16.5569 10.8619 16.5793 10.8506 16.5681C10.8282 16.5457 11.1759 16.3438 11.4564 16.2091C11.849 16.0185 12.2528 15.9175 13.1389 15.7605C13.5764 15.6932 14.0251 15.6034 14.1373 15.5586C15.2478 15.2108 15.7974 14.3471 15.6179 13.2927Z" fill="white"/>
<path d="M16.6388 15.0983C16.3472 14.4589 16.2799 13.8532 16.4369 13.2811C16.4594 13.225 16.4818 13.1689 16.5042 13.1689C16.5267 13.1689 16.594 13.2026 16.6613 13.2475C16.7959 13.3372 17.0763 13.4942 17.7942 13.8868C18.7028 14.3804 19.2188 14.7618 19.5777 15.1992C19.8918 15.5806 20.0825 16.0181 20.1722 16.5565C20.2283 16.8594 20.1947 17.5885 20.1162 17.8914C19.8694 18.8448 19.3085 19.6076 18.4897 20.045C18.3663 20.1123 18.2653 20.1572 18.2541 20.1572C18.2429 20.1572 18.2878 20.045 18.3551 19.9104C18.6243 19.3384 18.6579 18.7887 18.456 18.1718C18.3326 17.7904 18.0746 17.3305 17.5587 16.5565C16.9417 15.6591 16.7959 15.4236 16.6388 15.0983Z" fill="white"/>
<path d="M8.28195 18.531C9.11201 17.8355 10.1328 17.342 11.075 17.185C11.4788 17.1177 12.1519 17.1401 12.522 17.241C13.1165 17.3981 13.6549 17.7346 13.9354 18.1496C14.2046 18.5534 14.328 18.9012 14.4514 19.6752C14.4962 19.978 14.5523 20.2921 14.5635 20.3594C14.6533 20.7632 14.8327 21.0773 15.0571 21.2456C15.4048 21.5035 16.0105 21.5148 16.6051 21.2904C16.706 21.2568 16.7957 21.2231 16.7957 21.2343C16.8182 21.2568 16.5153 21.4587 16.3134 21.5596C16.033 21.7055 15.8086 21.7503 15.5058 21.7503C14.9674 21.7503 14.5074 21.4699 14.1373 20.909C14.0588 20.7969 13.9017 20.4716 13.7671 20.1687C13.3745 19.2601 13.1726 18.9909 12.7127 18.688C12.3089 18.4301 11.7929 18.374 11.4003 18.5647C10.8843 18.8114 10.7497 19.4732 11.1087 19.8771C11.2545 20.0453 11.5237 20.1799 11.748 20.2136C12.1631 20.2697 12.522 19.9444 12.522 19.5293C12.522 19.2601 12.4211 19.1031 12.1519 18.9797C11.7929 18.8227 11.4003 19.0021 11.4115 19.3499C11.4115 19.4957 11.4788 19.5854 11.6246 19.6527C11.7144 19.6976 11.7144 19.6976 11.6471 19.6864C11.3218 19.6191 11.2433 19.2153 11.5013 18.9573C11.8153 18.6432 12.4771 18.7778 12.7015 19.2153C12.7912 19.3947 12.8024 19.7537 12.7239 19.978C12.5332 20.4716 11.9948 20.7296 11.4452 20.5837C11.075 20.4828 10.918 20.3818 10.4693 19.9219C9.68409 19.1143 9.38122 18.9573 8.25951 18.789L8.04639 18.7554L8.28195 18.531Z" fill="white"/>
<path fill-rule="evenodd" clip-rule="evenodd" d="M2.38188 0.482336C4.99547 3.65678 9.02242 8.59232 9.22433 8.86153C9.39258 9.08587 9.32528 9.299 9.04485 9.45603C8.88781 9.54577 8.56252 9.63551 8.40548 9.63551C8.226 9.63551 8.01288 9.54577 7.86705 9.39995C7.7661 9.299 7.32863 8.65962 6.34153 7.12287C5.58998 5.94508 4.9506 4.96919 4.93938 4.95797C4.89452 4.93553 4.89452 4.93553 6.26301 7.38087C7.12672 8.91761 7.40715 9.46725 7.40715 9.53455C7.40715 9.68038 7.36228 9.7589 7.18281 9.96081C6.87995 10.2973 6.74534 10.6787 6.64439 11.4751C6.53222 12.3613 6.22935 12.9894 5.36564 14.0551C4.86087 14.6832 4.78235 14.7954 4.65896 15.0534C4.50192 15.3675 4.45705 15.5469 4.43461 15.9507C4.41218 16.377 4.45705 16.6462 4.58044 17.05C4.69261 17.409 4.816 17.6445 5.11886 18.1044C5.37685 18.5083 5.53389 18.8111 5.53389 18.9233C5.53389 19.013 5.55633 19.013 5.96014 18.9233C6.92482 18.6989 7.72123 18.3176 8.1587 17.8464C8.42791 17.5548 8.49521 17.3978 8.49521 16.9939C8.49521 16.7359 8.484 16.6799 8.41669 16.5228C8.30452 16.276 8.0914 16.0741 7.63149 15.7601C7.02577 15.345 6.76778 15.0085 6.70047 14.5598C6.64439 14.1784 6.71169 13.9204 7.0482 13.2138C7.39593 12.4847 7.48567 12.1818 7.54176 11.4415C7.57541 10.9703 7.63149 10.7797 7.7661 10.6338C7.91192 10.4768 8.03531 10.4207 8.38304 10.3758C8.95511 10.2973 9.32528 10.1515 9.61692 9.87107C9.87492 9.63551 9.98709 9.39995 9.99831 9.05222L10.0095 8.79422L9.8637 8.63719C9.3365 8.03146 2.03415 0 2.0005 0C1.98928 0 2.16876 0.213125 2.38188 0.482336ZM5.82552 16.4331C5.94891 16.22 5.88161 15.9508 5.6797 15.8162C5.48901 15.6928 5.19736 15.7488 5.19736 15.9171C5.19736 15.962 5.2198 16.0068 5.2871 16.0293C5.38805 16.0854 5.39927 16.1414 5.32075 16.2648C5.24223 16.3882 5.24223 16.5004 5.34319 16.5789C5.50023 16.7023 5.71335 16.635 5.82552 16.4331Z" fill="white"/>
<path fill-rule="evenodd" clip-rule="evenodd" d="M10.3688 10.5323C10.0996 10.6108 9.84162 10.9025 9.7631 11.1941C9.71823 11.3736 9.74067 11.6989 9.81919 11.7998C9.94258 11.9569 10.0547 12.0017 10.3688 12.0017C10.9858 12.0017 11.513 11.7325 11.5691 11.4072C11.6251 11.138 11.3896 10.7679 11.0643 10.5996C10.896 10.5099 10.5483 10.4762 10.3688 10.5323ZM11.0867 11.0932C11.1764 10.9586 11.1428 10.8128 10.9745 10.7119C10.6717 10.5212 10.2118 10.6782 10.2118 10.9698C10.2118 11.1157 10.4473 11.2727 10.6717 11.2727C10.8175 11.2727 11.0194 11.183 11.0867 11.0932Z" fill="white"/>
</svg>
